STARTFONT 2.1
COMMENT
COMMENT Converted from OpenType font "Righteous-Regular.ttf" by "otf2bdf 3.0".
COMMENT
FONT -FreeType-Righteous-Medium-R-Normal--28-200-100-100-P-137-ISO10646-1
SIZE 20 100 100
FONTBOUNDINGBOX 34 34 -4 -7
STARTPROPERTIES 19
FOUNDRY "FreeType"
FAMILY_NAME "Righteous"
WEIGHT_NAME "Medium"
SLANT "R"
SETWIDTH_NAME "Normal"
ADD_STYLE_NAME ""
PIXEL_SIZE 28
POINT_SIZE 200
RESOLUTION_X 100
RESOLUTION_Y 100
SPACING "P"
AVERAGE_WIDTH 137
CHARSET_REGISTRY "ISO10646"
CHARSET_ENCODING "1"
FONT_ASCENT 27
FONT_DESCENT 7
COPYRIGHT "Copyright (c) 2011 by Brian J. Bonislawsky DBA Astigmatic (AOETI) (astigma@astigmatic.com), with Reserved  Font Name "Righteous""
_OTF_FONTFILE "Righteous-Regular.ttf"
_OTF_PSNAME "Righteous-Regular"
ENDPROPERTIES
CHARS 369
STARTCHAR 0020
ENCODING 32
SWIDTH 288 0
DWIDTH 8 0
BBX 0 0 0 0
BITMAP
ENDCHAR
STARTCHAR 0021
ENCODING 33
SWIDTH 288 0
DWIDTH 8 0
BBX 5 21 1 -2
BITMAP
F0
F0
F0
F0
F0
F0
F0
F0
F0
F0
F0
F0
F0
F0
F0
00
70
F8
F8
F8
70
ENDCHAR
STARTCHAR 0022
ENCODING 34
SWIDTH 396 0
DWIDTH 11 0
BBX 9 6 1 13
BITMAP
F780
F780
7780
7780
7380
7300
ENDCHAR
STARTCHAR 0023
ENCODING 35
SWIDTH 576 0
DWIDTH 16 0
BBX 14 14 1 3
BITMAP
0778
0E70
0E70
3FFC
3FF8
7FF8
1CE0
1CE0
7FF0
FFF0
FFF0
3BC0
7380
7380
ENDCHAR
STARTCHAR 0024
ENCODING 36
SWIDTH 468 0
DWIDTH 13 0
BBX 11 19 1 0
BITMAP
0E00
0E00
0E00
3FC0
7FC0
FFC0
E000
E000
FF80
7FC0
3FC0
01E0
FFC0
FFC0
FF80
0E00
0E00
0E00
0E00
ENDCHAR
STARTCHAR 0025
ENCODING 37
SWIDTH 684 0
DWIDTH 19 0
BBX 17 19 1 0
BITMAP
3C0E00
7E0C00
FF1C00
E71800
E73800
E77000
FF7000
7EE000
3CC000
01DE00
01BF00
03FF80
037380
077380
0E7380
0E7380
1C3F80
1C3F00
381E00
ENDCHAR
STARTCHAR 0026
ENCODING 38
SWIDTH 504 0
DWIDTH 14 0
BBX 10 19 2 0
BITMAP
0E00
0E00
3FC0
7FC0
FFC0
E000
E000
E000
FF00
7F00
FF00
E000
E000
E000
FFC0
7FC0
3FC0
0E00
0E00
ENDCHAR
STARTCHAR 0027
ENCODING 39
SWIDTH 252 0
DWIDTH 7 0
BBX 4 6 1 13
BITMAP
F0
F0
70
70
70
70
ENDCHAR
STARTCHAR 0028
ENCODING 40
SWIDTH 360 0
DWIDTH 10 0
BBX 8 25 1 -3
BITMAP
0F
1E
3E
3C
78
78
78
F0
F0
F0
F0
F0
F0
F0
F0
F0
F0
78
78
78
3C
3C
1E
1E
0F
ENDCHAR
STARTCHAR 0029
ENCODING 41
SWIDTH 360 0
DWIDTH 10 0
BBX 8 25 1 -3
BITMAP
F0
78
78
3C
3C
1E
1E
1E
0E
0F
0F
0F
0F
0F
0F
0E
1E
1E
1E
3C
3C
3C
78
F8
F0
ENDCHAR
STARTCHAR 002A
ENCODING 42
SWIDTH 576 0
DWIDTH 16 0
BBX 14 14 1 8
BITMAP
0780
0780
0780
6798
7FF8
FFFC
7FF8
3FE0
0FC0
1FE0
3FF0
7CF8
3CF0
1860
ENDCHAR
STARTCHAR 002B
ENCODING 43
SWIDTH 468 0
DWIDTH 13 0
BBX 11 11 1 4
BITMAP
0F00
0F00
0F00
FFE0
FFE0
FFE0
FFE0
0F00
0F00
0F00
0F00
ENDCHAR
STARTCHAR 002C
ENCODING 44
SWIDTH 252 0
DWIDTH 7 0
BBX 5 7 1 -3
BITMAP
70
F8
F8
F8
38
30
30
ENDCHAR
STARTCHAR 002D
ENCODING 45
SWIDTH 540 0
DWIDTH 15 0
BBX 11 4 2 8
BITMAP
FFE0
FFE0
FFE0
FFE0
ENDCHAR
STARTCHAR 002E
ENCODING 46
SWIDTH 252 0
DWIDTH 7 0
BBX 5 5 1 -1
BITMAP
70
F8
F8
F8
70
ENDCHAR
STARTCHAR 002F
ENCODING 47
SWIDTH 504 0
DWIDTH 14 0
BBX 12 19 1 0
BITMAP
00F0
01E0
01E0
03C0
03C0
07C0
0780
0780
0F00
0F00
1E00
1E00
1E00
3C00
3C00
7800
7800
F000
F000
ENDCHAR
STARTCHAR 0030
ENCODING 48
SWIDTH 648 0
DWIDTH 18 0
BBX 16 19 1 0
BITMAP
07E0
1FF8
3FFC
7FFC
783E
F81E
F00E
F00F
F00F
F00F
F00F
F00F
F00F
F81E
783E
7FFC
3FFC
1FF8
07E0
ENDCHAR
STARTCHAR 0031
ENCODING 49
SWIDTH 324 0
DWIDTH 9 0
BBX 6 19 1 0
BITMAP
FC
FC
FC
FC
3C
3C
3C
3C
3C
3C
3C
3C
3C
3C
3C
3C
3C
3C
3C
ENDCHAR
STARTCHAR 0032
ENCODING 50
SWIDTH 576 0
DWIDTH 16 0
BBX 14 19 1 0
BITMAP
7FC0
7FF0
7FF8
7FF8
003C
003C
003C
07F8
3FF8
7FF0
7FC0
F800
F000
F000
F000
FFF8
FFF8
FFF8
FFF8
ENDCHAR
STARTCHAR 0033
ENCODING 51
SWIDTH 576 0
DWIDTH 16 0
BBX 14 19 1 0
BITMAP
FFC0
FFF0
FFF8
FFF8
003C
003C
003C
1FF8
1FF8
1FF8
1FF8
007C
003C
003C
003C
FFF8
FFF8
FFF0
FFC0
ENDCHAR
STARTCHAR 0034
ENCODING 52
SWIDTH 648 0
DWIDTH 18 0
BBX 16 19 1 0
BITMAP
3C00
3C00
3C3C
3C3C
3C3C
3C3C
783C
783C
783C
783C
783C
7FFF
7FFF
FFFF
FFFF
003C
003C
003C
003C
ENDCHAR
STARTCHAR 0035
ENCODING 53
SWIDTH 576 0
DWIDTH 16 0
BBX 14 19 1 0
BITMAP
7FF8
7FF8
7FF8
7FF8
7800
7000
F000
FFC0
FFF0
FFF8
FFF8
007C
003C
003C
007C
FFF8
FFF8
FFF0
FFC0
ENDCHAR
STARTCHAR 0036
ENCODING 54
SWIDTH 612 0
DWIDTH 17 0
BBX 15 19 1 0
BITMAP
07C0
0F80
1F00
3E00
3C00
7BE0
7FF8
FFFC
FFFC
F83E
F01E
F01E
F01E
F01E
783C
7FFC
3FF8
1FF0
07C0
ENDCHAR
STARTCHAR 0037
ENCODING 55
SWIDTH 504 0
DWIDTH 14 0
BBX 13 19 1 0
BITMAP
FFF8
FFF8
FFF8
FFF0
00F0
00F0
01E0
01E0
01E0
03C0
03C0
07C0
0780
0780
0F80
0F00
0F00
1F00
1E00
ENDCHAR
STARTCHAR 0038
ENCODING 56
SWIDTH 612 0
DWIDTH 17 0
BBX 15 20 1 0
BITMAP
07C0
1FF0
3FF8
3FFC
7C3C
783C
783C
3C7C
3FF8
1FF0
7FFC
783C
F01E
F01E
F01E
F83E
7FFC
7FFC
3FF8
0FE0
ENDCHAR
STARTCHAR 0039
ENCODING 57
SWIDTH 612 0
DWIDTH 17 0
BBX 15 20 1 0
BITMAP
07C0
1FF0
3FF8
7FFC
783C
F01E
F01E
F01E
F01E
F01E
F83E
7FFE
3FFC
1FFC
0FBC
0078
00F8
01F0
03E0
07C0
ENDCHAR
STARTCHAR 003A
ENCODING 58
SWIDTH 324 0
DWIDTH 9 0
BBX 5 13 2 -1
BITMAP
70
F8
F8
F8
70
00
00
00
70
F8
F8
F8
70
ENDCHAR
STARTCHAR 003B
ENCODING 59
SWIDTH 324 0
DWIDTH 9 0
BBX 5 15 2 -3
BITMAP
70
F8
F8
F8
70
00
00
00
70
F8
F8
F8
38
30
30
ENDCHAR
STARTCHAR 003C
ENCODING 60
SWIDTH 468 0
DWIDTH 13 0
BBX 11 15 1 4
BITMAP
0180
03C0
07C0
0F80
1F00
3E00
7C00
F800
7C00
3F00
1F80
0FC0
07E0
03C0
0180
ENDCHAR
STARTCHAR 003D
ENCODING 61
SWIDTH 540 0
DWIDTH 15 0
BBX 11 9 2 5
BITMAP
FFE0
FFE0
FFE0
FFE0
0000
FFE0
FFE0
FFE0
FFE0
ENDCHAR
STARTCHAR 003E
ENCODING 62
SWIDTH 468 0
DWIDTH 13 0
BBX 11 16 1 3
BITMAP
1000
3800
7C00
7C00
3E00
1F00
0F80
07C0
03E0
07E0
0F80
1F00
7E00
FC00
7800
3000
ENDCHAR
STARTCHAR 003F
ENCODING 63
SWIDTH 612 0
DWIDTH 17 0
BBX 15 20 1 -1
BITMAP
FFE0
FFF8
FFFC
FFFC
003E
001E
001E
003E
03FC
07F8
0FF0
0FC0
1E00
1E00
0000
0E00
1F00
1F00
1F00
0E00
ENDCHAR
STARTCHAR 0040
ENCODING 64
SWIDTH 648 0
DWIDTH 18 0
BBX 16 14 1 1
BITMAP
0FF0
3FF8
7E7C
7BFE
F7EE
EEE7
EEE7
EEE7
EFFF
77FE
7800
3F80
1F80
07C0
ENDCHAR
STARTCHAR 0041
ENCODING 65
SWIDTH 684 0
DWIDTH 19 0
BBX 16 19 2 0
BITMAP
07E0
1FF8
3FFC
7FFC
783E
F01E
F00F
F00F
F00F
F00F
F00F
FFFF
FFFF
FFFF
FFFF
F00F
F00F
F00F
F00F
ENDCHAR
STARTCHAR 0042
ENCODING 66
SWIDTH 684 0
DWIDTH 19 0
BBX 16 19 2 0
BITMAP
FFF0
FFFC
FFFE
FFFE
F00F
F00F
F00F
FFFE
FFFE
FFFC
FFFE
F01E
F00F
F00F
F00F
FFFE
FFFE
FFFC
FFF0
ENDCHAR
STARTCHAR 0043
ENCODING 67
SWIDTH 648 0
DWIDTH 18 0
BBX 16 19 1 0
BITMAP
01F8
07FE
1FFF
3FFF
7E06
7800
F800
F000
F000
F000
F000
F000
7800
7800
7E06
3FFF
1FFF
07FE
01F8
ENDCHAR
STARTCHAR 0044
ENCODING 68
SWIDTH 684 0
DWIDTH 19 0
BBX 16 19 2 0
BITMAP
FF80
FFE0
FFF8
FFFC
F07C
F03E
F01E
F00F
F00F
F00F
F00F
F00F
F01E
F03E
F07C
FFFC
FFF8
FFE0
FF80
ENDCHAR
STARTCHAR 0045
ENCODING 69
SWIDTH 576 0
DWIDTH 16 0
BBX 14 19 2 0
BITMAP
FFFC
FFFC
FFFC
FFFC
F000
F000
F000
FFE0
FFE0
FFE0
FFE0
F000
F000
F000
F000
FFFC
FFFC
FFFC
FFFC
ENDCHAR
STARTCHAR 0046
ENCODING 70
SWIDTH 576 0
DWIDTH 16 0
BBX 14 19 2 0
BITMAP
FFFC
FFFC
FFFC
FFFC
F000
F000
F000
FFC0
FFC0
FFC0
FFC0
F000
F000
F000
F000
F000
F000
F000
F000
ENDCHAR
STARTCHAR 0047
ENCODING 71
SWIDTH 684 0
DWIDTH 19 0
BBX 17 19 1 0
BITMAP
01F800
07FF00
1FFF80
3FFF00
3E0600
7C0000
780000
F00000
F00000
F00780
F00780
F00780
780780
7C0780
3E0780
3FFF80
1FFF80
07FF00
01F800
ENDCHAR
STARTCHAR 0048
ENCODING 72
SWIDTH 720 0
DWIDTH 20 0
BBX 16 19 2 0
BITMAP
F00F
F00F
F00F
F00F
F00F
F00F
F00F
FFFF
FFFF
FFFF
FFFF
F00F
F00F
F00F
F00F
F00F
F00F
F00F
F00F
ENDCHAR
STARTCHAR 0049
ENCODING 73
SWIDTH 288 0
DWIDTH 8 0
BBX 4 19 2 0
BITMAP
F0
F0
F0
F0
F0
F0
F0
F0
F0
F0
F0
F0
F0
F0
F0
F0
F0
F0
F0
ENDCHAR
STARTCHAR 004A
ENCODING 74
SWIDTH 432 0
DWIDTH 12 0
BBX 10 19 1 0
BITMAP
03C0
03C0
03C0
03C0
03C0
03C0
03C0
03C0
03C0
03C0
03C0
03C0
03C0
0780
0F80
FF80
FF00
FE00
F800
ENDCHAR
STARTCHAR 004B
ENCODING 75
SWIDTH 612 0
DWIDTH 17 0
BBX 15 19 2 0
BITMAP
F01E
F03C
F078
F0F8
F0F0
F1E0
F3C0
F7C0
FFC0
FFC0
FFE0
FFE0
FDF0
F8F0
F0F8
F078
F03C
F03E
F01E
ENDCHAR
STARTCHAR 004C
ENCODING 76
SWIDTH 576 0
DWIDTH 16 0
BBX 14 19 2 0
BITMAP
F000
F000
F000
F000
F000
F000
F000
F000
F000
F000
F000
F000
F000
F000
F000
FFFC
FFFC
FFFC
FFFC
ENDCHAR
STARTCHAR 004D
ENCODING 77
SWIDTH 828 0
DWIDTH 23 0
BBX 20 19 2 0
BITMAP
1F1F00
3FFFC0
7FFFE0
FFFFE0
F0F0F0
F0F0F0
F0F0F0
F0F0F0
F0F0F0
F0F0F0
F0F0F0
F0F0F0
F0F0F0
F0F0F0
F0F0F0
F0F0F0
F0F0F0
F0F0F0
F0F0F0
ENDCHAR
STARTCHAR 004E
ENCODING 78
SWIDTH 720 0
DWIDTH 20 0
BBX 16 19 2 0
BITMAP
F00F
F80F
FC0F
FC0F
FE0F
FF0F
FF0F
FF8F
F78F
F3CF
F3EF
F1EF
F0FF
F0FF
F07F
F07F
F03F
F01F
F01F
ENDCHAR
STARTCHAR 004F
ENCODING 79
SWIDTH 792 0
DWIDTH 22 0
BBX 20 19 1 0
BITMAP
01F800
07FE00
1FFF80
3FFFC0
7E07E0
7C03E0
F801E0
F000F0
F000F0
F000F0
F000F0
F000F0
7801E0
7C03E0
7E07E0
3FFFC0
1FFF80
07FE00
01F800
ENDCHAR
STARTCHAR 0050
ENCODING 80
SWIDTH 648 0
DWIDTH 18 0
BBX 16 19 2 0
BITMAP
FFE0
FFF8
FFFC
FFFE
F03E
F01E
F00F
F00F
F00F
F01E
F03E
FFFE
FFFC
FFF8
FFE0
F000
F000
F000
F000
ENDCHAR
STARTCHAR 0051
ENCODING 81
SWIDTH 792 0
DWIDTH 22 0
BBX 20 23 1 -4
BITMAP
01F800
07FE00
1FFF80
3FFFC0
7E07E0
7C03E0
F801E0
F000F0
F000F0
F000F0
F000F0
F000F0
7801E0
7C03E0
7E07E0
3FFFC0
1FFF80
07FF00
01FE00
001E00
000F00
000F80
000780
ENDCHAR
STARTCHAR 0052
ENCODING 82
SWIDTH 684 0
DWIDTH 19 0
BBX 16 19 2 0
BITMAP
FFE0
FFF8
FFFC
FFFE
F03E
F01E
F00F
F00F
F00F
F01E
F03E
FFFE
FFFC
FFF8
FFF8
F078
F078
F07C
F03C
ENDCHAR
STARTCHAR 0053
ENCODING 83
SWIDTH 648 0
DWIDTH 18 0
BBX 16 19 1 0
BITMAP
1FFE
3FFE
7FFE
FFFE
F000
F000
F000
FFE0
7FF8
3FFC
1FFE
001F
000F
000F
000F
7FFE
7FFE
7FFC
7FF0
ENDCHAR
STARTCHAR 0054
ENCODING 84
SWIDTH 648 0
DWIDTH 18 0
BBX 16 19 1 0
BITMAP
FFFF
FFFF
FFFF
FFFF
03C0
03C0
03C0
03C0
03C0
03C0
03C0
03C0
03C0
03C0
03C0
03C0
03C0
03C0
03C0
ENDCHAR
STARTCHAR 0055
ENCODING 85
SWIDTH 684 0
DWIDTH 19 0
BBX 16 19 2 0
BITMAP
F00F
F00F
F00F
F00F
F00F
F00F
F00F
F00F
F00F
F00F
F00F
F00F
F00F
F01E
783E
7FFC
3FFC
1FF8
07E0
ENDCHAR
STARTCHAR 0056
ENCODING 86
SWIDTH 612 0
DWIDTH 17 0
BBX 17 19 0 0
BITMAP
F80F80
780F00
781F00
7C1F00
3C1E00
3C1E00
3C3C00
1E3C00
1E3C00
1E7800
0F7800
0F7800
0FF000
07F000
07F000
07E000
03E000
03E000
03C000
ENDCHAR
STARTCHAR 0057
ENCODING 87
SWIDTH 828 0
DWIDTH 23 0
BBX 20 19 2 0
BITMAP
F0F0F0
F0F0F0
F0F0F0
F0F0F0
F0F0F0
F0F0F0
F0F0F0
F0F0F0
F0F0F0
F0F0F0
F0F0F0
F0F0F0
F0F0F0
F0F0F0
F0F0F0
FFFFE0
7FFFE0
3FFFC0
1F1F00
ENDCHAR
STARTCHAR 0058
ENCODING 88
SWIDTH 612 0
DWIDTH 17 0
BBX 17 19 0 0
BITMAP
F80F80
7C1F00
3C1E00
3E3E00
1E7C00
1F7800
0FF800
07F000
07F000
03E000
07F000
07F000
0FF800
1F7800
1E7C00
3E3E00
3C1E00
7C1F00
F80F80
ENDCHAR
STARTCHAR 0059
ENCODING 89
SWIDTH 648 0
DWIDTH 18 0
BBX 16 19 1 0
BITMAP
F00F
F00F
F00F
F00F
F00F
F00F
F00F
F81E
7C3E
7FFE
3FFC
1FF8
07C0
03C0
03C0
03C0
03C0
03C0
03C0
ENDCHAR
STARTCHAR 005A
ENCODING 90
SWIDTH 612 0
DWIDTH 17 0
BBX 15 19 1 0
BITMAP
FFFE
FFFC
FFFC
FFF8
00F8
01F0
01F0
03E0
03C0
07C0
0780
0F80
1F00
1F00
3E00
3FFE
7FFE
7FFE
FFFE
ENDCHAR
STARTCHAR 005B
ENCODING 91
SWIDTH 396 0
DWIDTH 11 0
BBX 8 25 2 -3
BITMAP
FF
FF
FF
FF
F0
F0
F0
F0
F0
F0
F0
F0
F0
F0
F0
F0
F0
F0
F0
F0
F0
FF
FF
FF
FF
ENDCHAR
STARTCHAR 005C
ENCODING 92
SWIDTH 504 0
DWIDTH 14 0
BBX 12 19 1 0
BITMAP
F000
F000
7800
7800
3C00
3C00
1E00
1E00
1E00
0F00
0F00
0780
0780
07C0
03C0
03C0
01E0
01E0
00F0
ENDCHAR
STARTCHAR 005D
ENCODING 93
SWIDTH 396 0
DWIDTH 11 0
BBX 8 25 1 -3
BITMAP
FF
FF
FF
FF
0F
0F
0F
0F
0F
0F
0F
0F
0F
0F
0F
0F
0F
0F
0F
0F
0F
FF
FF
FF
FF
ENDCHAR
STARTCHAR 005E
ENCODING 94
SWIDTH 288 0
DWIDTH 8 0
BBX 8 6 0 13
BITMAP
18
3C
7E
FF
66
02
ENDCHAR
STARTCHAR 005F
ENCODING 95
SWIDTH 612 0
DWIDTH 17 0
BBX 11 4 3 -6
BITMAP
FFE0
FFE0
FFE0
FFE0
ENDCHAR
STARTCHAR 0060
ENCODING 96
SWIDTH 216 0
DWIDTH 6 0
BBX 6 5 0 14
BITMAP
20
70
F8
3C
18
ENDCHAR
STARTCHAR 0061
ENCODING 97
SWIDTH 612 0
DWIDTH 17 0
BBX 15 15 1 0
BITMAP
0100
0FE6
3FF6
7FFE
7C7E
F03E
F01E
F01E
F01E
F03E
F83E
7FFE
3FFE
1FF6
0FC2
ENDCHAR
STARTCHAR 0062
ENCODING 98
SWIDTH 576 0
DWIDTH 16 0
BBX 15 20 1 0
BITMAP
F000
F000
F000
F000
F000
F100
FFE0
FFF8
FFF8
FC7C
F83C
F01E
F01E
F01E
F01E
783C
7FFC
3FF8
1FF0
07C0
ENDCHAR
STARTCHAR 0063
ENCODING 99
SWIDTH 540 0
DWIDTH 15 0
BBX 13 15 1 0
BITMAP
0100
0FE0
3FF0
7FF8
7C78
F830
F000
F000
F000
F000
F830
7FF8
3FF8
1FF0
07C0
ENDCHAR
STARTCHAR 0064
ENCODING 100
SWIDTH 612 0
DWIDTH 17 0
BBX 15 20 1 0
BITMAP
001E
001E
001E
001E
001E
011E
0FDE
3FFE
7FFE
7C7E
F03E
F01E
F01E
F01E
F03E
783E
7FFE
3FFE
1FF6
07C2
ENDCHAR
STARTCHAR 0065
ENCODING 101
SWIDTH 540 0
DWIDTH 15 0
BBX 13 15 1 0
BITMAP
0100
0FE0
3FF0
7FF8
7CF8
F9F0
F1E0
F3C0
F780
FF00
FE30
7FF8
3FF8
1FF0
07C0
ENDCHAR
STARTCHAR 0066
ENCODING 102
SWIDTH 396 0
DWIDTH 11 0
BBX 11 22 1 0
BITMAP
01E0
07E0
0FE0
1FE0
3E00
3C00
3C00
3C00
FFC0
FFC0
FFC0
FFC0
3C00
3C00
3C00
3C00
3C00
3C00
3C00
3C00
3C00
3C00
ENDCHAR
STARTCHAR 0067
ENCODING 103
SWIDTH 612 0
DWIDTH 17 0
BBX 15 20 1 -5
BITMAP
0100
0FE6
3FF6
7FFE
7C7E
F03E
F01E
F01E
F01E
F03E
F83E
7FFE
3FFE
1FFE
0FDE
003C
03FC
03F8
03F0
03C0
ENDCHAR
STARTCHAR 0068
ENCODING 104
SWIDTH 540 0
DWIDTH 15 0
BBX 13 20 1 0
BITMAP
F000
F000
F000
F000
F000
F000
FFC0
FFE0
FFF0
F8F8
F078
F078
F078
F078
F078
F078
F078
F078
F078
F078
ENDCHAR
STARTCHAR 0069
ENCODING 105
SWIDTH 252 0
DWIDTH 7 0
BBX 5 21 1 0
BITMAP
20
F0
F8
F8
F8
20
00
F0
F0
F0
F0
F0
F0
F0
F0
F0
F0
F0
F0
F0
F0
ENDCHAR
STARTCHAR 006A
ENCODING 106
SWIDTH 252 0
DWIDTH 7 0
BBX 10 25 -4 -4
BITMAP
0780
07C0
07C0
07C0
0100
0000
0780
0780
0780
0780
0780
0780
0780
0780
0780
0780
0780
0780
0780
0780
0F80
FF00
FE00
FC00
F800
ENDCHAR
STARTCHAR 006B
ENCODING 107
SWIDTH 540 0
DWIDTH 15 0
BBX 13 20 1 0
BITMAP
F000
F000
F000
F000
F000
F000
F078
F0F0
F1E0
F3E0
F3C0
F780
FF80
FFC0
FFC0
FDE0
F9E0
F0F0
F0F8
F078
ENDCHAR
STARTCHAR 006C
ENCODING 108
SWIDTH 216 0
DWIDTH 6 0
BBX 4 20 1 0
BITMAP
F0
F0
F0
F0
F0
F0
F0
F0
F0
F0
F0
F0
F0
F0
F0
F0
F0
F0
F0
F0
ENDCHAR
STARTCHAR 006D
ENCODING 109
SWIDTH 756 0
DWIDTH 21 0
BBX 18 14 1 0
BITMAP
9F3E00
FFFF80
FFFF80
FFFFC0
F1E3C0
F1E3C0
F1E3C0
F1E3C0
F1E3C0
F1E3C0
F1E3C0
F1E3C0
F1E3C0
F1E3C0
ENDCHAR
STARTCHAR 006E
ENCODING 110
SWIDTH 540 0
DWIDTH 15 0
BBX 13 14 1 1
BITMAP
9FC0
FFE0
FFF0
F8F8
F078
F078
F078
F078
F078
F078
F078
F078
F078
F078
ENDCHAR
STARTCHAR 006F
ENCODING 111
SWIDTH 576 0
DWIDTH 16 0
BBX 15 15 1 0
BITMAP
0100
0FE0
3FF8
7FF8
7C7C
F83C
F01E
F01E
F01E
F01E
783C
7FFC
3FF8
1FF0
07C0
ENDCHAR
STARTCHAR 0070
ENCODING 112
SWIDTH 612 0
DWIDTH 17 0
BBX 15 19 1 -4
BITMAP
8FE0
DFF8
FFFC
FC7C
F83E
F01E
F01E
F01E
F01E
F83E
FFFC
FFF8
FFF0
F7C0
F000
F000
F000
F000
F000
ENDCHAR
STARTCHAR 0071
ENCODING 113
SWIDTH 612 0
DWIDTH 17 0
BBX 15 20 1 -5
BITMAP
0100
1FE6
3FF6
7FFE
7C7E
F83E
F01E
F01E
F01E
F03E
F83E
7FFE
3FFE
1FFE
07DE
001E
001E
001E
001E
001E
ENDCHAR
STARTCHAR 0072
ENCODING 114
SWIDTH 432 0
DWIDTH 12 0
BBX 10 14 1 0
BITMAP
8FC0
FFC0
FFC0
FFC0
F800
F000
F000
F000
F000
F000
F000
F000
F000
F000
ENDCHAR
STARTCHAR 0073
ENCODING 115
SWIDTH 540 0
DWIDTH 15 0
BBX 13 14 1 0
BITMAP
3FF0
7FF0
FFF0
FFF0
F000
FFE0
7FF0
7FF8
1FF8
0078
FFF8
FFF0
FFF0
FFC0
ENDCHAR
STARTCHAR 0074
ENCODING 116
SWIDTH 468 0
DWIDTH 13 0
BBX 11 20 1 0
BITMAP
3C00
3C00
3C00
3C00
3C00
3C00
FFE0
FFE0
FFE0
FFE0
3C00
3C00
3C00
3C00
3C00
3C00
1FE0
1FE0
0FE0
03E0
ENDCHAR
STARTCHAR 0075
ENCODING 117
SWIDTH 540 0
DWIDTH 15 0
BBX 13 14 1 0
BITMAP
F078
F078
F078
F078
F078
F078
F078
F078
F078
F8F8
7FF8
7FF8
3FF8
0F88
ENDCHAR
STARTCHAR 0076
ENCODING 118
SWIDTH 540 0
DWIDTH 15 0
BBX 15 14 0 0
BITMAP
F03E
783C
783C
7878
3C78
3C78
1EF0
1EF0
1FE0
0FE0
0FE0
07C0
07C0
0780
ENDCHAR
STARTCHAR 0077
ENCODING 119
SWIDTH 756 0
DWIDTH 21 0
BBX 18 14 1 0
BITMAP
F1E3C0
F1E3C0
F1E3C0
F1E3C0
F1E3C0
F1E3C0
F1E3C0
F1E3C0
F1E3C0
F1E3C0
FFFFC0
7FFF80
3FFF80
1F1E00
ENDCHAR
STARTCHAR 0078
ENCODING 120
SWIDTH 540 0
DWIDTH 15 0
BBX 14 14 0 0
BITMAP
F83C
7C7C
3CF8
1EF0
1FE0
0FE0
07C0
07C0
0FE0
1FE0
1EF0
3C78
787C
F83C
ENDCHAR
STARTCHAR 0079
ENCODING 121
SWIDTH 540 0
DWIDTH 15 0
BBX 13 19 1 -5
BITMAP
F078
F078
F078
F078
F078
F078
F078
F078
F078
F8F8
7FF8
7FF8
3FF8
0F78
00F8
0FF0
0FE0
0FC0
0F00
ENDCHAR
STARTCHAR 007A
ENCODING 122
SWIDTH 504 0
DWIDTH 14 0
BBX 12 14 1 0
BITMAP
FFF0
FFE0
FFE0
FFC0
0380
0780
0F00
0F00
1E00
1C00
3FF0
7FF0
7FF0
FFF0
ENDCHAR
STARTCHAR 007B
ENCODING 123
SWIDTH 468 0
DWIDTH 13 0
BBX 12 25 0 -3
BITMAP
01F0
07F0
0FF0
0FF0
0F00
0F00
0F00
0F00
0F00
0F00
FE00
FE00
FC00
FE00
1E00
0F00
0F00
0F00
0F00
0F00
0F00
0FF0
0FF0
07F0
03F0
ENDCHAR
STARTCHAR 007C
ENCODING 124
SWIDTH 288 0
DWIDTH 8 0
BBX 4 25 2 -3
BITMAP
F0
F0
F0
F0
F0
F0
F0
F0
F0
F0
F0
F0
F0
F0
F0
F0
F0
F0
F0
F0
F0
F0
F0
F0
F0
ENDCHAR
STARTCHAR 007D
ENCODING 125
SWIDTH 468 0
DWIDTH 13 0
BBX 12 25 1 -3
BITMAP
F800
FE00
FE00
FF00
0F00
0F00
0F00
0F00
0F00
0F00
0FF0
07F0
03F0
07F0
0F00
0F00
0F00
0F00
0F00
0F00
0F00
FF00
FE00
FE00
FC00
ENDCHAR
STARTCHAR 007E
ENCODING 126
SWIDTH 432 0
DWIDTH 12 0
BBX 10 5 1 8
BITMAP
79C0
FFC0
FFC0
E7C0
E380
ENDCHAR
STARTCHAR 00A0
ENCODING 160
SWIDTH 288 0
DWIDTH 8 0
BBX 0 0 0 0
BITMAP
ENDCHAR
STARTCHAR 00A1
ENCODING 161
SWIDTH 288 0
DWIDTH 8 0
BBX 5 20 1 -4
BITMAP
70
F8
F8
F8
70
F0
F0
F0
F0
F0
F0
F0
F0
F0
F0
F0
F0
F0
F0
F0
ENDCHAR
STARTCHAR 00A2
ENCODING 162
SWIDTH 468 0
DWIDTH 13 0
BBX 11 19 1 0
BITMAP
0E00
0E00
0E00
1F00
3FC0
7FC0
71C0
E080
E000
E000
E080
F1C0
7FE0
3FC0
1F00
0E00
0E00
0E00
0E00
ENDCHAR
STARTCHAR 00A3
ENCODING 163
SWIDTH 648 0
DWIDTH 18 0
BBX 17 19 1 0
BITMAP
03C000
0FC000
1FC000
1FC000
3C0000
3C0000
3C0000
3C0000
FF8000
FF8000
FF8000
FF8000
3C0000
3C0780
3C0F00
3FFF00
3FFF00
3FFE00
3FF800
ENDCHAR
STARTCHAR 00A4
ENCODING 164
SWIDTH 468 0
DWIDTH 13 0
BBX 11 11 1 4
BITMAP
4040
FFE0
7FC0
71C0
60C0
60C0
60C0
71C0
7FC0
FFE0
4040
ENDCHAR
STARTCHAR 00A5
ENCODING 165
SWIDTH 648 0
DWIDTH 18 0
BBX 16 19 1 0
BITMAP
F00F
F00F
F00F
F00F
F00F
F00F
F00F
F81F
7C3E
7FFE
3FFC
1FF8
7FFE
7FFE
7FFE
7FFE
03C0
03C0
03C0
ENDCHAR
STARTCHAR 00A6
ENCODING 166
SWIDTH 288 0
DWIDTH 8 0
BBX 4 25 2 -3
BITMAP
F0
F0
F0
F0
F0
F0
F0
F0
F0
F0
F0
00
00
00
F0
F0
F0
F0
F0
F0
F0
F0
F0
F0
F0
ENDCHAR
STARTCHAR 00A7
ENCODING 167
SWIDTH 540 0
DWIDTH 15 0
BBX 13 19 1 0
BITMAP
3FF0
7FF0
FFF0
FFF0
F000
FFE0
7FF0
7FF8
FFF8
F078
FFF8
FFF0
7FF0
3FF8
0078
FFF8
FFF8
FFF0
FFE0
ENDCHAR
STARTCHAR 00A8
ENCODING 168
SWIDTH 324 0
DWIDTH 9 0
BBX 9 4 0 15
BITMAP
6300
F780
F780
6300
ENDCHAR
STARTCHAR 00A9
ENCODING 169
SWIDTH 648 0
DWIDTH 18 0
BBX 16 16 1 2
BITMAP
07E0
1FF8
3C3C
73CE
67E6
EC07
D803
D803
D803
D803
CC07
67E6
73CE
383C
1FF8
07E0
ENDCHAR
STARTCHAR 00AA
ENCODING 170
SWIDTH 468 0
DWIDTH 13 0
BBX 9 13 2 6
BITMAP
3C80
7F80
E780
C380
C180
C380
E780
7F80
3C80
0000
0000
FF80
FF80
ENDCHAR
STARTCHAR 00AB
ENCODING 171
SWIDTH 720 0
DWIDTH 20 0
BBX 17 14 1 0
BITMAP
020300
070780
0F8F80
1F1F00
3E1E00
7C3C00
F87800
F8F800
7C7C00
3E1F00
1F0F80
0F8780
070300
020000
ENDCHAR
STARTCHAR 00AC
ENCODING 172
SWIDTH 504 0
DWIDTH 14 0
BBX 12 7 1 5
BITMAP
FFF0
FFF0
FFF0
FFF0
00F0
00F0
00F0
ENDCHAR
STARTCHAR 00AD
ENCODING 173
SWIDTH 432 0
DWIDTH 12 0
BBX 8 4 2 8
BITMAP
FF
FF
FF
FF
ENDCHAR
STARTCHAR 00AE
ENCODING 174
SWIDTH 432 0
DWIDTH 12 0
BBX 10 10 1 10
BITMAP
1E00
7180
5E80
9340
9340
9740
9E40
D280
6180
3F00
ENDCHAR
STARTCHAR 00AF
ENCODING 175
SWIDTH 252 0
DWIDTH 7 0
BBX 7 3 0 15
BITMAP
FE
FE
FE
ENDCHAR
STARTCHAR 00B0
ENCODING 176
SWIDTH 396 0
DWIDTH 11 0
BBX 9 9 1 10
BITMAP
1C00
7F00
7F00
E380
E380
E380
FF00
7F00
3C00
ENDCHAR
STARTCHAR 00B1
ENCODING 177
SWIDTH 468 0
DWIDTH 13 0
BBX 11 14 1 0
BITMAP
0F00
0F00
FFE0
FFE0
FFE0
FFE0
0F00
0F00
0F00
0F00
FFE0
FFE0
FFE0
FFE0
ENDCHAR
STARTCHAR 00B2
ENCODING 178
SWIDTH 324 0
DWIDTH 9 0
BBX 7 9 1 10
BITMAP
FC
FE
FE
7E
FC
F8
FE
FE
FE
ENDCHAR
STARTCHAR 00B3
ENCODING 179
SWIDTH 360 0
DWIDTH 10 0
BBX 7 9 2 10
BITMAP
FC
FE
FE
7E
7E
7E
FE
FE
FC
ENDCHAR
STARTCHAR 00B4
ENCODING 180
SWIDTH 216 0
DWIDTH 6 0
BBX 6 5 0 14
BITMAP
18
38
7C
F8
60
ENDCHAR
STARTCHAR 00B5
ENCODING 181
SWIDTH 576 0
DWIDTH 16 0
BBX 13 21 2 -7
BITMAP
F078
F078
F078
F078
F078
F078
F078
F078
F078
F8F8
FFF8
FFF8
FFD8
FF88
E000
E000
E000
E000
E000
E000
E000
ENDCHAR
STARTCHAR 00B6
ENCODING 182
SWIDTH 792 0
DWIDTH 22 0
BBX 19 19 1 0
BITMAP
07FFE0
1FFFE0
3FFFE0
7FFFE0
78F1E0
F0F1E0
F0F1E0
F0F1E0
F0F1E0
F0F1E0
78F1E0
7FF1E0
3FF1E0
1FF1E0
07F1E0
00F1E0
00F1E0
00F1E0
00F1E0
ENDCHAR
STARTCHAR 00B7
ENCODING 183
SWIDTH 252 0
DWIDTH 7 0
BBX 5 5 1 7
BITMAP
70
F8
F8
F8
70
ENDCHAR
STARTCHAR 00B8
ENCODING 184
SWIDTH 216 0
DWIDTH 6 0
BBX 6 7 0 -6
BITMAP
30
30
38
7C
9C
FC
78
ENDCHAR
STARTCHAR 00B9
ENCODING 185
SWIDTH 216 0
DWIDTH 6 0
BBX 4 9 1 10
BITMAP
F0
F0
F0
70
70
70
70
70
70
ENDCHAR
STARTCHAR 00BA
ENCODING 186
SWIDTH 468 0
DWIDTH 13 0
BBX 9 13 2 6
BITMAP
3E00
7F00
F780
E180
C180
C180
E380
7F00
3E00
0000
0000
FF80
FF80
ENDCHAR
STARTCHAR 00BB
ENCODING 187
SWIDTH 720 0
DWIDTH 20 0
BBX 17 14 1 0
BITMAP
202000
707000
F87800
7C3C00
3E1E00
1F0F00
0F8780
0F8780
1F1F00
3E3E00
7C7C00
F87800
703000
202000
ENDCHAR
STARTCHAR 00BC
ENCODING 188
SWIDTH 648 0
DWIDTH 18 0
BBX 16 20 1 0
BITMAP
7838
7838
7870
3870
38E0
38E0
39C0
39C0
3B80
3B80
0770
076E
0E6E
0E6E
1C6E
1CFF
38FF
70FF
700E
E00E
ENDCHAR
STARTCHAR 00BD
ENCODING 189
SWIDTH 648 0
DWIDTH 18 0
BBX 16 20 1 0
BITMAP
781C
7838
7878
3870
38F0
38E0
39C0
39C0
3B80
3B80
077C
077E
0E7F
0E07
1C3F
1C7E
387C
787F
707F
E07F
ENDCHAR
STARTCHAR 00BE
ENCODING 190
SWIDTH 720 0
DWIDTH 20 0
BBX 18 20 1 0
BITMAP
F80E00
FC1E00
FE1C00
0E3800
7E3800
7E7000
7E7000
FEE000
FEE000
FDC000
01D800
03BB80
03BB80
073B80
0E3B80
0E3FC0
1C3FC0
1C3FC0
380380
380380
ENDCHAR
STARTCHAR 00BF
ENCODING 191
SWIDTH 612 0
DWIDTH 17 0
BBX 15 20 1 -4
BITMAP
00E0
01F0
01F0
01F0
00E0
0000
01E0
01E0
07E0
3FC0
7F80
7F00
F000
F000
F000
F000
7FFE
7FFE
3FFE
0FFE
ENDCHAR
STARTCHAR 00C0
ENCODING 192
SWIDTH 684 0
DWIDTH 19 0
BBX 16 26 2 0
BITMAP
0400
0E00
1F00
0F80
0780
0100
0000
07E0
1FF8
3FFC
7FFC
783E
F01E
F00F
F00F
F00F
F00F
F00F
FFFF
FFFF
FFFF
FFFF
F00F
F00F
F00F
F00F
ENDCHAR
STARTCHAR 00C1
ENCODING 193
SWIDTH 684 0
DWIDTH 19 0
BBX 16 26 2 0
BITMAP
0020
0070
00F8
01F0
01C0
0080
0000
07E0
1FF8
3FFC
7FFC
783E
F01E
F00F
F00F
F00F
F00F
F00F
FFFF
FFFF
FFFF
FFFF
F00F
F00F
F00F
F00F
ENDCHAR
STARTCHAR 00C2
ENCODING 194
SWIDTH 684 0
DWIDTH 19 0
BBX 16 25 2 0
BITMAP
0180
03C0
07E0
0FF0
0460
0000
07E0
1FF8
3FFC
7FFC
783E
F01E
F00F
F00F
F00F
F00F
F00F
FFFF
FFFF
FFFF
FFFF
F00F
F00F
F00F
F00F
ENDCHAR
STARTCHAR 00C3
ENCODING 195
SWIDTH 684 0
DWIDTH 19 0
BBX 16 25 2 0
BITMAP
0F30
1FB0
1FF0
1DF0
1CE0
0000
07E0
1FF8
3FFC
7FFC
783E
F01E
F00F
F00F
F00F
F00F
F00F
FFFF
FFFF
FFFF
FFFF
F00F
F00F
F00F
F00F
ENDCHAR
STARTCHAR 00C4
ENCODING 196
SWIDTH 684 0
DWIDTH 19 0
BBX 16 24 2 0
BITMAP
0C60
1EF0
1EF0
0C60
0000
07E0
1FF8
3FFC
7FFC
783E
F01E
F00F
F00F
F00F
F00F
F00F
FFFF
FFFF
FFFF
FFFF
F00F
F00F
F00F
F00F
ENDCHAR
STARTCHAR 00C5
ENCODING 197
SWIDTH 684 0
DWIDTH 19 0
BBX 16 24 2 0
BITMAP
0180
07C0
0660
0660
07C0
07E0
1FF8
3FFC
7FFE
7C3E
F81E
F00F
F00F
F00F
F00F
F00F
FFFF
FFFF
FFFF
FFFF
F00F
F00F
F00F
F00F
ENDCHAR
STARTCHAR 00C6
ENCODING 198
SWIDTH 1008 0
DWIDTH 28 0
BBX 25 19 2 0
BITMAP
07FFFF80
1FFFFF80
3FFFFF80
7FFFFF80
780F0000
F00F0000
F00F0000
F00FFC00
F00FFC00
F00FFC00
F00FFC00
FFFF0000
FFFF0000
FFFF0000
FFFF0000
F00FFF80
F00FFF80
F00FFF80
F00FFF80
ENDCHAR
STARTCHAR 00C7
ENCODING 199
SWIDTH 648 0
DWIDTH 18 0
BBX 16 25 1 -6
BITMAP
01F8
07FE
1FFF
3FFF
3E06
7800
7800
F000
F000
F000
F000
F000
F800
7800
7E06
3FFF
1FFF
0FFE
03F8
0180
01C0
00E0
02E0
07E0
03C0
ENDCHAR
STARTCHAR 00C8
ENCODING 200
SWIDTH 576 0
DWIDTH 16 0
BBX 14 26 2 0
BITMAP
0800
1C00
3E00
1F00
0700
0200
0000
FFFC
FFFC
FFFC
FFFC
F000
F000
F000
FFE0
FFE0
FFE0
FFE0
F000
F000
F000
F000
FFFC
FFFC
FFFC
FFFC
ENDCHAR
STARTCHAR 00C9
ENCODING 201
SWIDTH 576 0
DWIDTH 16 0
BBX 14 26 2 0
BITMAP
0040
00E0
01E0
03E0
0380
0000
0000
FFFC
FFFC
FFFC
FFFC
F000
F000
F000
FFE0
FFE0
FFE0
FFE0
F000
F000
F000
F000
FFFC
FFFC
FFFC
FFFC
ENDCHAR
STARTCHAR 00CA
ENCODING 202
SWIDTH 576 0
DWIDTH 16 0
BBX 14 25 2 0
BITMAP
0300
0F80
1FC0
1DC0
0800
0000
FFFC
FFFC
FFFC
FFFC
F000
F000
F000
FFE0
FFE0
FFE0
FFE0
F000
F000
F000
F000
FFFC
FFFC
FFFC
FFFC
ENDCHAR
STARTCHAR 00CB
ENCODING 203
SWIDTH 576 0
DWIDTH 16 0
BBX 14 24 2 0
BITMAP
18C0
3DE0
3DE0
18C0
0000
FFFC
FFFC
FFFC
FFFC
F000
F000
F000
FFC0
FFC0
FFC0
FFC0
F000
F000
F000
F000
FFFC
FFFC
FFFC
FFFC
ENDCHAR
STARTCHAR 00CC
ENCODING 204
SWIDTH 288 0
DWIDTH 8 0
BBX 6 26 0 0
BITMAP
40
E0
F0
F8
38
10
00
3C
3C
3C
3C
3C
3C
3C
3C
3C
3C
3C
3C
3C
3C
3C
3C
3C
3C
3C
ENDCHAR
STARTCHAR 00CD
ENCODING 205
SWIDTH 288 0
DWIDTH 8 0
BBX 6 26 2 0
BITMAP
08
18
3C
7C
70
00
00
F0
F0
F0
F0
F0
F0
F0
F0
F0
F0
F0
F0
F0
F0
F0
F0
F0
F0
F0
ENDCHAR
STARTCHAR 00CE
ENCODING 206
SWIDTH 288 0
DWIDTH 8 0
BBX 6 25 1 0
BITMAP
30
78
FC
CC
00
00
78
78
78
78
78
78
78
78
78
78
78
78
78
78
78
78
78
78
78
ENDCHAR
STARTCHAR 00CF
ENCODING 207
SWIDTH 288 0
DWIDTH 8 0
BBX 9 24 0 0
BITMAP
6300
F780
F780
6300
0000
3C00
3C00
3C00
3C00
3C00
3C00
3C00
3C00
3C00
3C00
3C00
3C00
3C00
3C00
3C00
3C00
3C00
3C00
3C00
ENDCHAR
STARTCHAR 00D0
ENCODING 208
SWIDTH 720 0
DWIDTH 20 0
BBX 18 19 1 0
BITMAP
3FE000
3FF800
3FFE00
3FFF00
3C1F00
3C0F80
3C0780
FF03C0
FF03C0
FF03C0
FF03C0
3C03C0
3C0780
3C0F80
3C1F00
3FFF00
3FFE00
3FF800
3FE000
ENDCHAR
STARTCHAR 00D1
ENCODING 209
SWIDTH 720 0
DWIDTH 20 0
BBX 16 26 2 0
BITMAP
0F30
1FB0
1FF0
1DF0
1CE0
0000
0000
F00F
F80F
FC0F
FC0F
FE0F
FF0F
FF0F
FF8F
F78F
F3CF
F3EF
F1EF
F0FF
F0FF
F07F
F07F
F03F
F01F
F01F
ENDCHAR
STARTCHAR 00D2
ENCODING 210
SWIDTH 792 0
DWIDTH 22 0
BBX 20 26 1 0
BITMAP
010000
038000
07C000
03E000
00E000
004000
000000
01F800
07FE00
1FFF80
3FFFC0
7E07E0
7C03E0
F801E0
F000F0
F000F0
F000F0
F000F0
F000F0
7801E0
7C03E0
7E07E0
3FFFC0
1FFF80
07FE00
01F800
ENDCHAR
STARTCHAR 00D3
ENCODING 211
SWIDTH 792 0
DWIDTH 22 0
BBX 20 26 1 0
BITMAP
000800
001C00
003E00
007C00
007000
002000
000000
01F800
07FE00
1FFF80
3FFFC0
7E07E0
7C03E0
F801E0
F000F0
F000F0
F000F0
F000F0
F000F0
7801E0
7C03E0
7E07E0
3FFFC0
1FFF80
07FE00
01F800
ENDCHAR
STARTCHAR 00D4
ENCODING 212
SWIDTH 792 0
DWIDTH 22 0
BBX 20 25 1 0
BITMAP
006000
00F000
01F800
01F800
019800
000000
01F800
07FE00
1FFF80
3FFFC0
7E07E0
7C03E0
F801E0
F000F0
F000F0
F000F0
F000F0
F000F0
7801E0
7C03E0
7E07E0
3FFFC0
1FFF80
07FE00
01F800
ENDCHAR
STARTCHAR 00D5
ENCODING 213
SWIDTH 792 0
DWIDTH 22 0
BBX 20 26 1 0
BITMAP
01CE00
03EE00
03FE00
03BE00
039C00
000000
000000
01F800
07FE00
1FFF80
3FFFC0
7E07E0
7C03E0
F801E0
F000F0
F000F0
F000F0
F000F0
F000F0
7801E0
7C03E0
7E07E0
3FFFC0
1FFF80
07FE00
01F800
ENDCHAR
STARTCHAR 00D6
ENCODING 214
SWIDTH 792 0
DWIDTH 22 0
BBX 20 25 1 0
BITMAP
018C00
03DE00
03DE00
018C00
000000
000000
01F800
07FE00
1FFF80
3FFFC0
7E07E0
7C03E0
F801E0
F000F0
F000F0
F000F0
F000F0
F000F0
7801E0
7C03E0
7E07E0
3FFFC0
1FFF80
07FE00
01F800
ENDCHAR
STARTCHAR 00D7
ENCODING 215
SWIDTH 468 0
DWIDTH 13 0
BBX 11 10 1 4
BITMAP
2080
79C0
FFE0
7FC0
3F80
1F80
3FC0
7FE0
7BC0
3180
ENDCHAR
STARTCHAR 00D8
ENCODING 216
SWIDTH 792 0
DWIDTH 22 0
BBX 20 19 1 0
BITMAP
01F9E0
07FFC0
1FFF80
3FFFC0
3E0FE0
7C1FE0
783DF0
F038F0
F078F0
F0F0F0
F1E0F0
F3C0F0
FB81E0
7F83E0
7F07C0
3FFFC0
1FFF80
3FFE00
7BF800
ENDCHAR
STARTCHAR 00D9
ENCODING 217
SWIDTH 684 0
DWIDTH 19 0
BBX 16 25 2 1
BITMAP
0E00
0F00
0F80
0780
0180
0000
F00F
F00F
F00F
F00F
F00F
F00F
F00F
F00F
F00F
F00F
F00F
F00F
F00F
F01E
783E
7FFC
3FFC
1FF8
07E0
ENDCHAR
STARTCHAR 00DA
ENCODING 218
SWIDTH 684 0
DWIDTH 19 0
BBX 16 26 2 0
BITMAP
0020
0070
00F8
01F0
01C0
0080
0000
F00F
F00F
F00F
F00F
F00F
F00F
F00F
F00F
F00F
F00F
F00F
F00F
F00F
F01E
783E
7FFC
3FFC
1FF8
07E0
ENDCHAR
STARTCHAR 00DB
ENCODING 219
SWIDTH 684 0
DWIDTH 19 0
BBX 16 25 2 0
BITMAP
0180
03C0
07E0
0FF0
0460
0000
F00F
F00F
F00F
F00F
F00F
F00F
F00F
F00F
F00F
F00F
F00F
F00F
F00F
F01E
783E
7FFC
3FFC
1FF8
07E0
ENDCHAR
STARTCHAR 00DC
ENCODING 220
SWIDTH 684 0
DWIDTH 19 0
BBX 16 24 2 0
BITMAP
0C60
1EF0
1EF0
0C60
0000
F00F
F00F
F00F
F00F
F00F
F00F
F00F
F00F
F00F
F00F
F00F
F00F
F00F
F01E
783E
7FFC
3FFC
1FF8
07E0
ENDCHAR
STARTCHAR 00DD
ENCODING 221
SWIDTH 648 0
DWIDTH 18 0
BBX 16 26 1 0
BITMAP
0020
0060
00F0
01F8
01E0
0180
0000
F00F
F00F
F00F
F00F
F00F
F00F
F00F
F81E
7C3E
7FFE
3FFC
1FF8
07C0
03C0
03C0
03C0
03C0
03C0
03C0
ENDCHAR
STARTCHAR 00DE
ENCODING 222
SWIDTH 648 0
DWIDTH 18 0
BBX 16 21 2 -1
BITMAP
F000
F000
F000
FFE0
FFF8
FFFC
FFFE
F03E
F01E
F00F
F00F
F00F
F01E
F03E
FFFE
FFFC
FFF8
FFE0
F000
F000
F000
ENDCHAR
STARTCHAR 00DF
ENCODING 223
SWIDTH 864 0
DWIDTH 24 0
BBX 22 22 1 0
BITMAP
01FC00
07FF00
0FFF80
1FFF80
1E07C0
3C03C0
3C03C0
3C07C0
FC3F80
FCFF80
FCFF00
FDFC00
3DE000
3DFFF0
3CFFF8
3C7FFC
3C1FFC
3C003C
3CFFFC
3CFFF8
3CFFF8
3CFFE0
ENDCHAR
STARTCHAR 00E0
ENCODING 224
SWIDTH 612 0
DWIDTH 17 0
BBX 15 21 1 0
BITMAP
0C00
1E00
1F00
0F80
0300
0000
0100
0FE6
3FF6
7FFE
7C7E
F03E
F01E
F01E
F01E
F03E
F83E
7FFE
3FFE
1FF6
0FC2
ENDCHAR
STARTCHAR 00E1
ENCODING 225
SWIDTH 612 0
DWIDTH 17 0
BBX 15 21 1 0
BITMAP
0040
00E0
01F0
03C0
0180
0000
0100
0FE6
3FF6
7FFE
7C7E
F03E
F01E
F01E
F01E
F03E
F83E
7FFE
3FFE
1FF6
0FC2
ENDCHAR
STARTCHAR 00E2
ENCODING 226
SWIDTH 612 0
DWIDTH 17 0
BBX 15 20 1 1
BITMAP
0380
07C0
0FE0
0EC0
0440
0100
0FE6
3FF6
7FFE
7C7E
F03E
F01E
F01E
F01E
F03E
F83E
7FFE
3FFE
1FF6
0FC2
ENDCHAR
STARTCHAR 00E3
ENCODING 227
SWIDTH 612 0
DWIDTH 17 0
BBX 15 20 1 0
BITMAP
0F70
1FF0
1DF0
1CE0
0000
0100
0FE2
3FF6
7FFE
7C7E
F03E
F01E
F01E
F01E
F03E
F83E
7FFE
3FFE
1FF6
0FC2
ENDCHAR
STARTCHAR 00E4
ENCODING 228
SWIDTH 612 0
DWIDTH 17 0
BBX 15 19 1 0
BITMAP
0C60
1EF0
1EF0
0C60
0100
0FE2
3FF6
7FFE
7C7E
F03E
F01E
F01E
F01E
F03E
F83E
7FFE
3FFE
1FF6
0FC2
ENDCHAR
STARTCHAR 00E5
ENCODING 229
SWIDTH 612 0
DWIDTH 17 0
BBX 15 22 1 0
BITMAP
0380
07C0
06C0
06C0
07C0
0380
0000
0100
0FE6
3FF6
7FFE
7C7E
F03E
F01E
F01E
F01E
F03E
F83E
7FFE
3FFE
1FF6
0FC2
ENDCHAR
STARTCHAR 00E6
ENCODING 230
SWIDTH 972 0
DWIDTH 27 0
BBX 26 15 1 0
BITMAP
01000000
0FE6FE00
3FF7FF80
7FFFFFC0
7C7FC780
F03F8F00
F01F1E00
F01F3C00
F01F7800
F03FF000
F83FE300
7FFFFF80
3FFFFF80
1FF7FF00
0FC67C00
ENDCHAR
STARTCHAR 00E7
ENCODING 231
SWIDTH 540 0
DWIDTH 15 0
BBX 13 20 1 -5
BITMAP
0FE0
3FF8
7FF8
7C78
F830
F000
F000
F000
F000
F830
7EF8
3FF8
1FF0
0FC0
0300
0380
01C0
0DC0
0FC0
0780
ENDCHAR
STARTCHAR 00E8
ENCODING 232
SWIDTH 540 0
DWIDTH 15 0
BBX 13 21 1 0
BITMAP
0800
1E00
3F00
0F80
0300
0000
0100
0FE0
3FF0
7FF8
7CF8
F9F0
F1E0
F3C0
F780
FF00
FE30
7FF8
3FF8
1FF0
07C0
ENDCHAR
STARTCHAR 00E9
ENCODING 233
SWIDTH 540 0
DWIDTH 15 0
BBX 13 21 1 0
BITMAP
0040
00E0
01F0
03C0
0180
0000
0100
0FE0
3FF0
7FF8
7CF8
F9F0
F1E0
F3C0
F780
FF00
FE30
7FF8
3FF8
1FF0
07C0
ENDCHAR
STARTCHAR 00EA
ENCODING 234
SWIDTH 540 0
DWIDTH 15 0
BBX 13 21 1 0
BITMAP
0200
0700
0F80
1FC0
0CC0
0000
0100
0FE0
3FF0
7FF8
7CF8
F9F0
F1E0
F3C0
F780
FF00
FE30
7FF8
3FF8
1FF0
07C0
ENDCHAR
STARTCHAR 00EB
ENCODING 235
SWIDTH 540 0
DWIDTH 15 0
BBX 14 19 1 0
BITMAP
18E0
3CE0
3CE0
1840
0000
0FE0
3FF8
7FFC
7CF8
F1F0
F1E0
F3C0
F780
FF00
7F30
7FF8
3FF8
1FF0
07C0
ENDCHAR
STARTCHAR 00EC
ENCODING 236
SWIDTH 216 0
DWIDTH 6 0
BBX 6 21 -1 0
BITMAP
40
E0
F0
F8
38
10
00
3C
3C
3C
3C
3C
3C
3C
3C
3C
3C
3C
3C
3C
3C
ENDCHAR
STARTCHAR 00ED
ENCODING 237
SWIDTH 216 0
DWIDTH 6 0
BBX 6 21 1 0
BITMAP
08
18
3C
7C
70
20
00
F0
F0
F0
F0
F0
F0
F0
F0
F0
F0
F0
F0
F0
F0
ENDCHAR
STARTCHAR 00EE
ENCODING 238
SWIDTH 216 0
DWIDTH 6 0
BBX 6 20 0 0
BITMAP
30
78
FC
DC
84
00
78
78
78
78
78
78
78
78
78
78
78
78
78
78
ENDCHAR
STARTCHAR 00EF
ENCODING 239
SWIDTH 252 0
DWIDTH 7 0
BBX 9 19 -1 0
BITMAP
6300
F780
F780
6300
0000
3C00
3C00
3C00
3C00
3C00
3C00
3C00
3C00
3C00
3C00
3C00
3C00
3C00
3C00
ENDCHAR
STARTCHAR 00F0
ENCODING 240
SWIDTH 576 0
DWIDTH 16 0
BBX 15 22 1 0
BITMAP
07C0
07C0
03C0
1FFC
1FFC
1FFC
1FFC
0170
0FF8
3FF8
7FFC
7C7C
F83C
F01E
F01E
F01E
F01E
783C
7FFC
3FF8
1FF0
07C0
ENDCHAR
STARTCHAR 00F1
ENCODING 241
SWIDTH 540 0
DWIDTH 15 0
BBX 13 20 1 0
BITMAP
1CE0
3EE0
3FE0
3BE0
39C0
0000
9FC0
FFE0
FFF0
F8F8
F078
F078
F078
F078
F078
F078
F078
F078
F078
F078
ENDCHAR
STARTCHAR 00F2
ENCODING 242
SWIDTH 576 0
DWIDTH 16 0
BBX 15 21 1 0
BITMAP
0C00
1E00
1F00
0F80
0300
0000
0100
0FE0
3FF8
7FF8
7C7C
F83C
F01E
F01E
F01E
F01E
783C
7FFC
3FF8
1FF0
07C0
ENDCHAR
STARTCHAR 00F3
ENCODING 243
SWIDTH 576 0
DWIDTH 16 0
BBX 15 21 1 0
BITMAP
0040
00E0
01F0
03C0
0180
0000
0100
0FE0
3FF8
7FF8
7C7C
F83C
F01E
F01E
F01E
F01E
783C
7FFC
3FF8
1FF0
07C0
ENDCHAR
STARTCHAR 00F4
ENCODING 244
SWIDTH 576 0
DWIDTH 16 0
BBX 15 21 1 0
BITMAP
0100
0380
07C0
0FE0
0EC0
0040
0100
0FE0
3FF8
7FF8
7C7C
F83C
F01E
F01E
F01E
F01E
783C
7FFC
3FF8
1FF0
07C0
ENDCHAR
STARTCHAR 00F5
ENCODING 245
SWIDTH 576 0
DWIDTH 16 0
BBX 15 20 1 0
BITMAP
0F70
1FF0
1DF0
1CE0
0000
0100
0FE0
3FF8
7FF8
7C7C
F83C
F01E
F01E
F01E
F01E
783C
7FFC
3FF8
1FF0
07C0
ENDCHAR
STARTCHAR 00F6
ENCODING 246
SWIDTH 576 0
DWIDTH 16 0
BBX 15 19 1 0
BITMAP
0C60
1EF0
1EF0
0C60
0100
0FE0
3FF8
7FF8
7C7C
F83C
F01E
F01E
F01E
F01E
783C
7FFC
3FF8
1FF0
07C0
ENDCHAR
STARTCHAR 00F7
ENCODING 247
SWIDTH 468 0
DWIDTH 13 0
BBX 11 13 1 3
BITMAP
0600
0F00
0F00
0600
FFE0
FFE0
FFE0
FFE0
0000
0600
0F00
0F00
0600
ENDCHAR
STARTCHAR 00F8
ENCODING 248
SWIDTH 576 0
DWIDTH 16 0
BBX 15 15 1 0
BITMAP
0100
0FFC
3FFC
7FF8
7CFC
F9FC
F1DE
F3DE
F79E
FF1E
7E3C
7FFC
3FF8
7FF0
FFC0
ENDCHAR
STARTCHAR 00F9
ENCODING 249
SWIDTH 540 0
DWIDTH 15 0
BBX 13 20 1 1
BITMAP
1800
3C00
3E00
0F00
0600
0000
F078
F078
F078
F078
F078
F078
F078
F078
F078
F8F8
7FF8
7FF8
3FF8
0F88
ENDCHAR
STARTCHAR 00FA
ENCODING 250
SWIDTH 540 0
DWIDTH 15 0
BBX 13 20 1 1
BITMAP
00C0
01E0
03E0
0780
0300
0000
F078
F078
F078
F078
F078
F078
F078
F078
F078
F8F8
7FF8
7FF8
3FF8
0F88
ENDCHAR
STARTCHAR 00FB
ENCODING 251
SWIDTH 540 0
DWIDTH 15 0
BBX 13 20 1 0
BITMAP
0200
0700
0F80
1DC0
0880
0000
F078
F078
F078
F078
F078
F078
F078
F078
F078
F8F8
7FF8
7FF8
3FF8
0F88
ENDCHAR
STARTCHAR 00FC
ENCODING 252
SWIDTH 540 0
DWIDTH 15 0
BBX 13 19 1 0
BITMAP
18C0
3DE0
3DE0
18C0
0000
F078
F078
F078
F078
F078
F078
F078
F078
F078
F8F8
7FF8
7FF8
3FF8
0F88
ENDCHAR
STARTCHAR 00FD
ENCODING 253
SWIDTH 540 0
DWIDTH 15 0
BBX 13 25 1 -4
BITMAP
00C0
01E0
03E0
0780
0300
0000
F078
F078
F078
F078
F078
F078
F078
F078
F078
F8F8
7FF8
7FF8
3FF8
0F78
00F8
0FF0
0FE0
0FC0
0F00
ENDCHAR
STARTCHAR 00FE
ENCODING 254
SWIDTH 612 0
DWIDTH 17 0
BBX 15 25 1 -5
BITMAP
F000
F000
F000
F000
F000
F100
FFE0
FFF8
FFFC
FC7C
F83E
F01E
F01E
F01E
F01E
F83E
FFFC
FFF8
FFF0
F7C0
F000
F000
F000
F000
F000
ENDCHAR
STARTCHAR 00FF
ENCODING 255
SWIDTH 540 0
DWIDTH 15 0
BBX 13 24 1 -5
BITMAP
18C0
3DE0
3DE0
18C0
0000
F078
F078
F078
F078
F078
F078
F078
F078
F078
F8F8
7FF8
7FF8
3FF8
0F78
00F8
0FF0
0FE0
0FC0
0F00
ENDCHAR
STARTCHAR 0100
ENCODING 256
SWIDTH 684 0
DWIDTH 19 0
BBX 16 23 2 0
BITMAP
0FE0
0FE0
0FE0
0000
07E0
1FF8
3FFC
7FFC
783E
F01E
F00F
F00F
F00F
F00F
F00F
FFFF
FFFF
FFFF
FFFF
F00F
F00F
F00F
F00F
ENDCHAR
STARTCHAR 0101
ENCODING 257
SWIDTH 612 0
DWIDTH 17 0
BBX 15 19 1 0
BITMAP
0FE0
0FE0
0FE0
0000
0100
0FE6
3FF6
7FFE
7C7E
F03E
F01E
F01E
F01E
F03E
F83E
7FFE
3FFE
1FF6
0FC2
ENDCHAR
STARTCHAR 0102
ENCODING 258
SWIDTH 684 0
DWIDTH 19 0
BBX 16 25 2 0
BITMAP
06E0
0EE0
07E0
07C0
0000
0000
07E0
1FF8
3FFC
7FFC
783E
F01E
F00F
F00F
F00F
F00F
F00F
FFFF
FFFF
FFFF
FFFF
F00F
F00F
F00F
F00F
ENDCHAR
STARTCHAR 0103
ENCODING 259
SWIDTH 612 0
DWIDTH 17 0
BBX 15 20 1 0
BITMAP
0CC0
0FC0
07C0
0000
0000
0100
0FE6
3FF6
7FFE
7C7E
F03E
F01E
F01E
F01E
F03E
F83E
7FFE
3FFE
1FF6
0FC2
ENDCHAR
STARTCHAR 0104
ENCODING 260
SWIDTH 684 0
DWIDTH 19 0
BBX 17 24 2 -5
BITMAP
07E000
1FF800
3FFC00
7FFC00
783E00
F01E00
F00F00
F00F00
F00F00
F00F00
F00F00
FFFF00
FFFF00
FFFF00
FFFF00
F00F00
F00F00
F00F00
F00F00
000C00
001C00
001F00
001F80
000F00
ENDCHAR
STARTCHAR 0105
ENCODING 261
SWIDTH 612 0
DWIDTH 17 0
BBX 17 20 1 -5
BITMAP
010000
0FE200
3FF600
7FFE00
7C7E00
F83E00
F01E00
F01E00
F01E00
F01E00
F83E00
7FFE00
3FFE00
1FF600
0FC600
000C00
001C00
001F80
000F80
000400
ENDCHAR
STARTCHAR 0106
ENCODING 262
SWIDTH 648 0
DWIDTH 18 0
BBX 16 25 1 1
BITMAP
0018
003C
00FC
00F0
0040
0000
01F8
07FE
1FFF
3FFF
7E06
7800
F800
F000
F000
F000
F000
F000
7800
7800
7E06
3FFF
1FFF
07FE
01F8
ENDCHAR
STARTCHAR 0107
ENCODING 263
SWIDTH 540 0
DWIDTH 15 0
BBX 13 21 1 0
BITMAP
0040
00E0
01F0
03C0
0380
0000
0100
0FE0
3FF0
7FF8
7C78
F830
F000
F000
F000
F000
F830
7FF8
3FF8
1FF0
07C0
ENDCHAR
STARTCHAR 0108
ENCODING 264
SWIDTH 648 0
DWIDTH 18 0
BBX 16 25 1 0
BITMAP
00C0
01E0
03F0
03B8
0110
0000
01F8
07FE
1FFF
3FFF
7E06
7800
F800
F000
F000
F000
F000
F000
7800
7800
7E06
3FFF
1FFF
07FE
01F8
ENDCHAR
STARTCHAR 0109
ENCODING 265
SWIDTH 540 0
DWIDTH 15 0
BBX 13 20 1 1
BITMAP
0380
07C0
0FE0
0CC0
0040
0100
0FE0
3FF0
7FF8
7C78
F830
F000
F000
F000
F000
F830
7FF8
3FF8
1FF0
07C0
ENDCHAR
STARTCHAR 010A
ENCODING 266
SWIDTH 648 0
DWIDTH 18 0
BBX 17 25 1 0
BITMAP
006000
00F000
00F000
006000
000000
000000
01F800
07FF00
1FFF80
3FFF00
7E0600
7C0000
F80000
F00000
F00000
F00000
F00000
F00000
780000
7C0000
3E0600
3FFF00
1FFF80
07FF00
01F800
ENDCHAR
STARTCHAR 010B
ENCODING 267
SWIDTH 540 0
DWIDTH 15 0
BBX 13 19 1 0
BITMAP
0300
0780
0780
0300
0100
0FE0
3FF0
7FF8
7C78
F830
F000
F000
F000
F020
F830
7FF8
3FF8
1FF0
07C0
ENDCHAR
STARTCHAR 010C
ENCODING 268
SWIDTH 648 0
DWIDTH 18 0
BBX 16 25 1 0
BITMAP
0198
03F8
01F0
00E0
0040
0000
01F8
07FE
1FFF
3FFF
7E06
7800
F800
F000
F000
F000
F000
F000
7800
7800
7E06
3FFF
1FFF
07FE
01F8
ENDCHAR
STARTCHAR 010D
ENCODING 269
SWIDTH 540 0
DWIDTH 15 0
BBX 13 21 1 0
BITMAP
0440
0EE0
0FE0
07C0
0300
0000
0100
0FE0
3FF0
7FF8
7C78
F830
F000
F000
F000
F000
F830
7FF8
3FF8
1FF0
07C0
ENDCHAR
STARTCHAR 010E
ENCODING 270
SWIDTH 684 0
DWIDTH 19 0
BBX 16 25 2 0
BITMAP
0C40
1FE0
0FC0
0380
0100
0000
FF80
FFE0
FFF8
FFFC
F07C
F03E
F01E
F00F
F00F
F00F
F00F
F00F
F01E
F03E
F07C
FFFC
FFF8
FFE0
FF80
ENDCHAR
STARTCHAR 010F
ENCODING 271
SWIDTH 792 0
DWIDTH 22 0
BBX 20 20 1 0
BITMAP
001E00
001E60
001EF0
001EF0
001E70
011E60
0FDE20
3FFE00
7FFE00
7C7E00
F03E00
F01E00
F01E00
F01E00
F03E00
783E00
7FFE00
3FFE00
1FF600
07C200
ENDCHAR
STARTCHAR 0110
ENCODING 272
SWIDTH 720 0
DWIDTH 20 0
BBX 18 19 1 0
BITMAP
3FE000
3FF800
3FFE00
3FFF00
3C1F00
3C0F80
3C0780
FF03C0
FF03C0
FF03C0
FF03C0
3C03C0
3C0780
3C0F80
3C1F00
3FFF00
3FFE00
3FF800
3FE000
ENDCHAR
STARTCHAR 0111
ENCODING 273
SWIDTH 612 0
DWIDTH 17 0
BBX 16 20 1 0
BITMAP
001E
007F
007F
007F
007F
011E
0FDE
3FFE
7FFE
7C7E
F03E
F01E
F01E
F01E
F03E
783E
7FFE
3FFE
1FF6
07C2
ENDCHAR
STARTCHAR 0112
ENCODING 274
SWIDTH 576 0
DWIDTH 16 0
BBX 14 23 2 0
BITMAP
1FC0
1FC0
1FC0
0000
FFFC
FFFC
FFFC
FFFC
F000
F000
F000
FFC0
FFC0
FFC0
FFC0
F000
F000
F000
F000
FFFC
FFFC
FFFC
FFFC
ENDCHAR
STARTCHAR 0113
ENCODING 275
SWIDTH 540 0
DWIDTH 15 0
BBX 14 19 1 0
BITMAP
0FE0
0FE0
0FE0
0000
0000
0FE0
3FF8
7FFC
7C78
F8F0
F1E0
F3C0
F780
FF00
7F30
7FF8
3FF8
1FF0
07C0
ENDCHAR
STARTCHAR 0114
ENCODING 276
SWIDTH 576 0
DWIDTH 16 0
BBX 14 25 2 0
BITMAP
0D80
1D80
0F80
0F80
0000
0000
FFFC
FFFC
FFFC
FFFC
F000
F000
F000
FFE0
FFE0
FFE0
FFE0
F000
F000
F000
F000
FFFC
FFFC
FFFC
FFFC
ENDCHAR
STARTCHAR 0115
ENCODING 277
SWIDTH 540 0
DWIDTH 15 0
BBX 13 20 1 0
BITMAP
0CC0
0FC0
0780
0000
0000
0100
0FE0
3FF0
7FF8
7CF8
F8F0
F1E0
F3C0
F780
FF00
FE30
7FF8
3FF8
1FF0
07C0
ENDCHAR
STARTCHAR 0116
ENCODING 278
SWIDTH 576 0
DWIDTH 16 0
BBX 14 24 2 0
BITMAP
0300
0780
0780
0300
0000
FFFC
FFFC
FFFC
FFFC
F000
F000
F000
FFE0
FFE0
FFE0
FFE0
F000
F000
F000
F000
FFFC
FFFC
FFFC
FFFC
ENDCHAR
STARTCHAR 0117
ENCODING 279
SWIDTH 540 0
DWIDTH 15 0
BBX 13 19 1 0
BITMAP
0300
0780
0780
0300
0100
0FE0
3FF8
7FF8
7CF8
F1F0
F1E0
F3C0
F780
FF00
FE30
7FF8
3FF8
1FF0
07C0
ENDCHAR
STARTCHAR 0118
ENCODING 280
SWIDTH 576 0
DWIDTH 16 0
BBX 14 24 2 -5
BITMAP
FFFC
FFFC
FFFC
FFFC
F000
F000
F000
FFE0
FFE0
FFE0
FFE0
F000
F000
F000
F000
FFFC
FFFC
FFFC
FFFC
00E0
00C0
00F8
00F8
0070
ENDCHAR
STARTCHAR 0119
ENCODING 281
SWIDTH 540 0
DWIDTH 15 0
BBX 14 19 1 -4
BITMAP
0FE0
3FF8
7FFC
7CF8
F9F0
F1E0
F3C0
F780
FF00
7E30
7FF8
3FF8
1FF0
07E0
00C0
01C0
01F0
01F8
0060
ENDCHAR
STARTCHAR 011A
ENCODING 282
SWIDTH 576 0
DWIDTH 16 0
BBX 14 25 2 0
BITMAP
0CC0
1FE0
0FC0
0780
0200
0000
FFFC
FFFC
FFFC
FFFC
F000
F000
F000
FFE0
FFE0
FFE0
FFE0
F000
F000
F000
F000
FFFC
FFFC
FFFC
FFFC
ENDCHAR
STARTCHAR 011B
ENCODING 283
SWIDTH 540 0
DWIDTH 15 0
BBX 13 21 1 0
BITMAP
0440
0EE0
0FC0
0780
0300
0000
0100
0FE0
3FF0
7FF8
7CF8
F9F0
F1E0
F3C0
F780
FF00
FE30
7FF8
3FF8
1FF0
07C0
ENDCHAR
STARTCHAR 011C
ENCODING 284
SWIDTH 684 0
DWIDTH 19 0
BBX 17 25 1 0
BITMAP
004000
00F000
01F800
03B800
011800
000000
01F800
07FF00
1FFF80
3FFF00
3E0600
7C0000
780000
F00000
F00000
F00780
F00780
F00780
780780
7C0780
3E0780
3FFF80
1FFF80
07FF00
01F800
ENDCHAR
STARTCHAR 011D
ENCODING 285
SWIDTH 612 0
DWIDTH 17 0
BBX 15 25 1 -4
BITMAP
0300
07C0
0FE0
0CC0
0040
0100
0FE6
3FF6
7FFE
7C7E
F03E
F01E
F01E
F01E
F03E
F83E
7FFE
3FFE
1FFE
0FDE
003C
03FC
03F8
03F0
03C0
ENDCHAR
STARTCHAR 011E
ENCODING 286
SWIDTH 684 0
DWIDTH 19 0
BBX 17 25 1 0
BITMAP
019800
01F800
01F800
00F000
000000
000000
01F800
07FF00
1FFF80
3FFF00
3E0600
7C0000
780000
F00000
F00000
F00780
F00780
F00780
780780
7C0780
3E0780
3FFF80
1FFF80
07FF00
01F800
ENDCHAR
STARTCHAR 011F
ENCODING 287
SWIDTH 612 0
DWIDTH 17 0
BBX 15 25 1 -5
BITMAP
0EC0
0FC0
07C0
0000
0000
0100
0FE6
3FF6
7FFE
7C7E
F03E
F01E
F01E
F01E
F03E
F83E
7FFE
3FFE
1FFE
0FDE
003C
03FC
03F8
03F0
03C0
ENDCHAR
STARTCHAR 0120
ENCODING 288
SWIDTH 684 0
DWIDTH 19 0
BBX 17 25 1 0
BITMAP
006000
00F000
00F000
006000
000000
000000
01F800
07FF00
1FFF80
3FFF00
3E0600
7C0000
780000
F00000
F00000
F00780
F00780
F00780
780780
7C0780
3E0780
3FFF80
1FFF80
07FF00
01F800
ENDCHAR
STARTCHAR 0121
ENCODING 289
SWIDTH 612 0
DWIDTH 17 0
BBX 14 24 1 -5
BITMAP
0300
0780
0780
0300
0000
1FC4
3FFC
7FFC
7CFC
F03C
F03C
F03C
F03C
F03C
F87C
7FFC
3FFC
1FFC
0FFC
007C
07F8
07F8
07E0
07C0
ENDCHAR
STARTCHAR 0122
ENCODING 290
SWIDTH 684 0
DWIDTH 19 0
BBX 17 25 1 -7
BITMAP
01F800
07FF00
1FFF80
3FFF00
3E0600
7C0000
780000
F00000
F00000
F00780
F00780
F00780
780780
7C0780
3E0780
3FFF80
1FFF80
07FF00
01F800
000000
006000
00F000
00F000
007000
006000
ENDCHAR
STARTCHAR 0123
ENCODING 291
SWIDTH 612 0
DWIDTH 17 0
BBX 14 27 1 -5
BITMAP
0300
0300
0780
0780
0780
0000
0000
0000
1FC4
3FFC
7FFC
7CFC
F03C
F03C
F03C
F03C
F03C
F87C
7FFC
3FFC
1FFC
0FFC
007C
07F8
07F8
07E0
07C0
ENDCHAR
STARTCHAR 0124
ENCODING 292
SWIDTH 720 0
DWIDTH 20 0
BBX 16 25 2 0
BITMAP
0100
0380
07E0
0FF0
0660
0000
F00F
F00F
F00F
F00F
F00F
F00F
F00F
FFFF
FFFF
FFFF
FFFF
F00F
F00F
F00F
F00F
F00F
F00F
F00F
F00F
ENDCHAR
STARTCHAR 0125
ENCODING 293
SWIDTH 540 0
DWIDTH 15 0
BBX 13 20 1 1
BITMAP
F180
F3C0
F7F0
F660
F000
F000
FFC0
FFE0
FFF0
F8F8
F078
F078
F078
F078
F078
F078
F078
F078
F078
F078
ENDCHAR
STARTCHAR 0126
ENCODING 294
SWIDTH 720 0
DWIDTH 20 0
BBX 18 19 1 0
BITMAP
780780
780780
FFFFC0
FFFFC0
FFFFC0
FFFFC0
780780
7FFF80
7FFF80
7FFF80
7FFF80
780780
780780
780780
780780
780780
780780
780780
780780
ENDCHAR
STARTCHAR 0127
ENCODING 295
SWIDTH 576 0
DWIDTH 16 0
BBX 14 20 1 0
BITMAP
7800
FC00
FC00
FC00
FC00
7800
7FE0
7FF0
7FF8
7E7C
783C
783C
783C
783C
783C
783C
783C
783C
783C
783C
ENDCHAR
STARTCHAR 0128
ENCODING 296
SWIDTH 252 0
DWIDTH 7 0
BBX 9 25 -1 0
BITMAP
7380
FB80
FF80
EF80
E700
0000
3C00
3C00
3C00
3C00
3C00
3C00
3C00
3C00
3C00
3C00
3C00
3C00
3C00
3C00
3C00
3C00
3C00
3C00
3C00
ENDCHAR
STARTCHAR 0129
ENCODING 297
SWIDTH 252 0
DWIDTH 7 0
BBX 9 20 -1 0
BITMAP
7380
FB80
FF80
FF80
C700
0000
3C00
3C00
3C00
3C00
3C00
3C00
3C00
3C00
3C00
3C00
3C00
3C00
3C00
3C00
ENDCHAR
STARTCHAR 012A
ENCODING 298
SWIDTH 324 0
DWIDTH 9 0
BBX 7 23 1 0
BITMAP
FE
FE
FE
00
78
78
78
78
78
78
78
78
78
78
78
78
78
78
78
78
78
78
78
ENDCHAR
STARTCHAR 012B
ENCODING 299
SWIDTH 252 0
DWIDTH 7 0
BBX 7 19 0 0
BITMAP
FE
FE
FE
00
00
78
78
78
78
78
78
78
78
78
78
78
78
78
78
ENDCHAR
STARTCHAR 012C
ENCODING 300
SWIDTH 288 0
DWIDTH 8 0
BBX 6 25 1 0
BITMAP
DC
CC
FC
78
00
00
78
78
78
78
78
78
78
78
78
78
78
78
78
78
78
78
78
78
78
ENDCHAR
STARTCHAR 012D
ENCODING 301
SWIDTH 288 0
DWIDTH 8 0
BBX 6 19 1 0
BITMAP
CC
FC
78
00
00
78
78
78
78
78
78
78
78
78
78
78
78
78
78
ENDCHAR
STARTCHAR 012E
ENCODING 302
SWIDTH 288 0
DWIDTH 8 0
BBX 6 24 1 -5
BITMAP
78
78
78
78
78
78
78
78
78
78
78
78
78
78
78
78
78
78
78
60
E0
F8
FC
70
ENDCHAR
STARTCHAR 012F
ENCODING 303
SWIDTH 252 0
DWIDTH 7 0
BBX 6 26 1 -5
BITMAP
20
F0
F8
F8
F8
20
00
78
78
78
78
78
78
78
78
78
78
78
78
78
78
60
E0
F8
FC
70
ENDCHAR
STARTCHAR 0130
ENCODING 304
SWIDTH 288 0
DWIDTH 8 0
BBX 4 24 2 0
BITMAP
60
F0
F0
60
00
F0
F0
F0
F0
F0
F0
F0
F0
F0
F0
F0
F0
F0
F0
F0
F0
F0
F0
F0
ENDCHAR
STARTCHAR 0131
ENCODING 305
SWIDTH 216 0
DWIDTH 6 0
BBX 4 14 1 0
BITMAP
F0
F0
F0
F0
F0
F0
F0
F0
F0
F0
F0
F0
F0
F0
ENDCHAR
STARTCHAR 0132
ENCODING 306
SWIDTH 684 0
DWIDTH 19 0
BBX 16 19 2 0
BITMAP
F00F
F00F
F00F
F00F
F00F
F00F
F00F
F00F
F00F
F00F
F00F
F00F
F00F
F01E
F03E
F3FC
F3FC
F3F8
F3E0
ENDCHAR
STARTCHAR 0133
ENCODING 307
SWIDTH 504 0
DWIDTH 14 0
BBX 12 26 1 -5
BITMAP
2000
F1E0
F9F0
F9F0
F9F0
2040
0000
F1E0
F1E0
F1E0
F1E0
F1E0
F1E0
F1E0
F1E0
F1E0
F1E0
F1E0
F1E0
F1E0
F1E0
03C0
7FC0
7F80
7F00
7C00
ENDCHAR
STARTCHAR 0134
ENCODING 308
SWIDTH 432 0
DWIDTH 12 0
BBX 11 25 1 0
BITMAP
0180
03C0
07E0
0EE0
0440
0000
03C0
03C0
03C0
03C0
03C0
03C0
03C0
03C0
03C0
03C0
03C0
03C0
03C0
0780
0F80
FF80
FF00
FE00
F800
ENDCHAR
STARTCHAR 0135
ENCODING 309
SWIDTH 252 0
DWIDTH 7 0
BBX 11 25 -4 -5
BITMAP
0180
03C0
07E0
0FE0
0660
0000
03C0
03C0
03C0
03C0
03C0
03C0
03C0
03C0
03C0
03C0
03C0
03C0
03C0
03C0
0780
FF80
FF00
FE00
F800
ENDCHAR
STARTCHAR 0136
ENCODING 310
SWIDTH 648 0
DWIDTH 18 0
BBX 15 26 2 -7
BITMAP
F01E
F03C
F07C
F0F8
F0F0
F1E0
F3E0
F7C0
F7C0
FFC0
FFE0
FFE0
FCF0
F8F0
F078
F07C
F03C
F03E
F01E
0000
0000
0780
0780
0780
0300
0300
ENDCHAR
STARTCHAR 0137
ENCODING 311
SWIDTH 540 0
DWIDTH 15 0
BBX 13 27 1 -7
BITMAP
F000
F000
F000
F000
F000
F000
F078
F0F0
F1F0
F3E0
F3C0
F780
FF80
FFC0
FFC0
FDE0
F9F0
F0F0
F0F8
F078
0000
0000
0F00
0F00
0700
0300
0600
ENDCHAR
STARTCHAR 0138
ENCODING 312
SWIDTH 540 0
DWIDTH 15 0
BBX 13 14 1 0
BITMAP
F078
F0F0
F1F0
F3E0
F3C0
F780
FF80
FFC0
FFC0
FDE0
F9E0
F0F0
F0F8
F078
ENDCHAR
STARTCHAR 0139
ENCODING 313
SWIDTH 576 0
DWIDTH 16 0
BBX 14 24 2 0
BITMAP
0180
0380
07C0
0F00
0600
F000
F000
F000
F000
F000
F000
F000
F000
F000
F000
F000
F000
F000
F000
F000
FFFC
FFFC
FFFC
FFFC
ENDCHAR
STARTCHAR 013A
ENCODING 314
SWIDTH 216 0
DWIDTH 6 0
BBX 7 27 1 0
BITMAP
04
0C
1E
3E
38
30
00
F0
F0
F0
F0
F0
F0
F0
F0
F0
F0
F0
F0
F0
F0
F0
F0
F0
F0
F0
F0
ENDCHAR
STARTCHAR 013B
ENCODING 315
SWIDTH 576 0
DWIDTH 16 0
BBX 14 26 2 -7
BITMAP
F000
F000
F000
F000
F000
F000
F000
F000
F000
F000
F000
F000
F000
F000
F000
FFFC
FFFC
FFFC
FFFC
0000
0000
0F00
0F00
0700
0300
0600
ENDCHAR
STARTCHAR 013C
ENCODING 316
SWIDTH 216 0
DWIDTH 6 0
BBX 4 27 1 -7
BITMAP
F0
F0
F0
F0
F0
F0
F0
F0
F0
F0
F0
F0
F0
F0
F0
F0
F0
F0
F0
F0
00
00
F0
F0
F0
60
60
ENDCHAR
STARTCHAR 013D
ENCODING 317
SWIDTH 576 0
DWIDTH 16 0
BBX 14 19 2 0
BITMAP
F300
F780
F780
F380
F300
F000
F000
F000
F000
F000
F000
F000
F000
F000
F000
FFFC
FFFC
FFFC
FFFC
ENDCHAR
STARTCHAR 013E
ENCODING 318
SWIDTH 360 0
DWIDTH 10 0
BBX 9 20 1 0
BITMAP
F000
F300
F780
F780
F380
F300
F000
F000
F000
F000
F000
F000
F000
F000
F000
F000
F000
F000
F000
F000
ENDCHAR
STARTCHAR 013F
ENCODING 319
SWIDTH 756 0
DWIDTH 21 0
BBX 18 19 2 0
BITMAP
F00000
F00000
F00000
F00000
F00000
F00000
F00000
F00380
F007C0
F007C0
F007C0
F00380
F00000
F00000
F00000
FFFC00
FFFC00
FFFC00
FFFC00
ENDCHAR
STARTCHAR 0140
ENCODING 320
SWIDTH 432 0
DWIDTH 12 0
BBX 10 20 1 0
BITMAP
F000
F000
F000
F000
F000
F000
F000
F000
F380
F7C0
F7C0
F7C0
F380
F000
F000
F000
F000
F000
F000
F000
ENDCHAR
STARTCHAR 0141
ENCODING 321
SWIDTH 612 0
DWIDTH 17 0
BBX 16 19 1 0
BITMAP
3C00
3C00
3C00
3C00
3C00
3C00
3F00
3F00
3F00
7E00
FC00
FC00
FC00
3C00
3C00
3FFF
3FFF
3FFF
3FFF
ENDCHAR
STARTCHAR 0142
ENCODING 322
SWIDTH 360 0
DWIDTH 10 0
BBX 8 20 1 0
BITMAP
3C
3C
3C
3C
3C
3C
3C
3F
3F
3F
FE
FC
FC
BC
3C
3C
3C
3C
3C
3C
ENDCHAR
STARTCHAR 0143
ENCODING 323
SWIDTH 720 0
DWIDTH 20 0
BBX 16 25 2 0
BITMAP
0020
0070
01F8
03E0
01C0
0000
F00F
F80F
FC0F
FC0F
FE0F
FF0F
FF0F
FF8F
F78F
F3CF
F3EF
F1EF
F0FF
F0FF
F07F
F07F
F03F
F01F
F01F
ENDCHAR
STARTCHAR 0144
ENCODING 324
SWIDTH 540 0
DWIDTH 15 0
BBX 13 22 1 0
BITMAP
0040
00C0
01E0
03E0
03C0
0100
0000
0000
9FC0
FFE0
FFF0
F8F8
F078
F078
F078
F078
F078
F078
F078
F078
F078
F078
ENDCHAR
STARTCHAR 0145
ENCODING 325
SWIDTH 720 0
DWIDTH 20 0
BBX 16 26 2 -7
BITMAP
F00F
F80F
FC0F
FC0F
FE0F
FF0F
FF0F
FF8F
F78F
F3CF
F3EF
F1EF
F0FF
F0FF
F07F
F07F
F03F
F01F
F01F
0000
0000
03C0
03C0
03C0
0180
0180
ENDCHAR
STARTCHAR 0146
ENCODING 326
SWIDTH 540 0
DWIDTH 15 0
BBX 13 21 1 -6
BITMAP
9FC0
FFE0
FFF0
F8F8
F078
F078
F078
F078
F078
F078
F078
F078
F078
F078
0000
0000
0F00
0F00
0700
0300
0600
ENDCHAR
STARTCHAR 0147
ENCODING 327
SWIDTH 720 0
DWIDTH 20 0
BBX 16 25 2 0
BITMAP
0460
0EE0
07E0
03C0
0180
0000
F00F
F80F
FC0F
FC0F
FE0F
FF0F
FF0F
FF8F
F78F
F3CF
F3EF
F1EF
F0FF
F0FF
F07F
F07F
F03F
F01F
F01F
ENDCHAR
STARTCHAR 0148
ENCODING 328
SWIDTH 540 0
DWIDTH 15 0
BBX 13 21 1 0
BITMAP
0880
1DC0
1FC0
0F80
0600
0000
0000
9FC0
FFE0
FFF0
F8F8
F078
F078
F078
F078
F078
F078
F078
F078
F078
F078
ENDCHAR
STARTCHAR 0149
ENCODING 329
SWIDTH 684 0
DWIDTH 19 0
BBX 18 19 0 0
BITMAP
600000
F00000
F00000
700000
600000
04FE00
07FF00
07FF80
07C7C0
0783C0
0783C0
0783C0
0783C0
0783C0
0783C0
0783C0
0783C0
0783C0
0783C0
ENDCHAR
STARTCHAR 014A
ENCODING 330
SWIDTH 720 0
DWIDTH 20 0
BBX 16 24 2 -5
BITMAP
F00F
F80F
FC0F
FC0F
FE0F
FF0F
FF0F
FF8F
F78F
F3CF
F3EF
F1EF
F0FF
F0FF
F07F
F07F
F03F
F01F
F01E
001E
03FE
03FC
03F8
03E0
ENDCHAR
STARTCHAR 014B
ENCODING 331
SWIDTH 540 0
DWIDTH 15 0
BBX 13 19 1 -4
BITMAP
DFC0
FFE0
FFF0
FCF8
F878
F078
F078
F078
F078
F078
F078
F078
F078
F078
00F8
0FF0
0FE0
0FC0
0F80
ENDCHAR
STARTCHAR 014C
ENCODING 332
SWIDTH 792 0
DWIDTH 22 0
BBX 20 24 1 0
BITMAP
01FC00
01FC00
01FC00
000000
000000
01F800
07FE00
1FFF80
3FFFC0
7E07E0
7C03E0
F801E0
F000F0
F000F0
F000F0
F000F0
F000F0
7801E0
7C03E0
7E07E0
3FFFC0
1FFF80
07FE00
01F800
ENDCHAR
STARTCHAR 014D
ENCODING 333
SWIDTH 576 0
DWIDTH 16 0
BBX 15 19 1 0
BITMAP
0FE0
0FE0
0FE0
0000
0100
0FE0
3FF8
7FF8
7C7C
F83C
F01E
F01E
F01E
F01E
783C
7FFC
3FF8
1FF0
07C0
ENDCHAR
STARTCHAR 014E
ENCODING 334
SWIDTH 792 0
DWIDTH 22 0
BBX 20 25 1 0
BITMAP
019800
01F800
01F800
00F000
000000
000000
01F800
07FE00
1FFF80
3FFFC0
7E07E0
7C03E0
F801E0
F000F0
F000F0
F000F0
F000F0
F000F0
7801E0
7C03E0
7E07E0
3FFFC0
1FFF80
07FE00
01F800
ENDCHAR
STARTCHAR 014F
ENCODING 335
SWIDTH 576 0
DWIDTH 16 0
BBX 15 20 1 0
BITMAP
0EC0
0FC0
07C0
0000
0000
0100
0FE0
3FF8
7FF8
7C7C
F83C
F01E
F01E
F01E
F01E
783C
7FFC
3FF8
1FF0
07C0
ENDCHAR
STARTCHAR 0150
ENCODING 336
SWIDTH 792 0
DWIDTH 22 0
BBX 20 26 1 1
BITMAP
00E200
00F700
01EF80
03DF00
019C00
000800
000000
01F800
07FE00
1FFF80
3FFFC0
7E07E0
7C03E0
F801E0
F000F0
F000F0
F000F0
F000F0
F000F0
7801E0
7C03E0
7E07E0
3FFFC0
1FFF80
07FE00
01F800
ENDCHAR
STARTCHAR 0151
ENCODING 337
SWIDTH 576 0
DWIDTH 16 0
BBX 15 21 1 0
BITMAP
0310
07B8
07BC
0F78
0EF0
0460
0100
0FE0
3FF8
7FF8
7C7C
F83C
F01E
F01E
F01E
F01E
783C
7FFC
3FF8
1FF0
07C0
ENDCHAR
STARTCHAR 0152
ENCODING 338
SWIDTH 1116 0
DWIDTH 31 0
BBX 29 19 1 0
BITMAP
01F8FFF8
07FEFFF8
1FFFFFF8
3FFFFFF8
7E07F000
7803F000
F801F000
F000FFC0
F000FFC0
F000FFC0
F000FFC0
F000F000
7801F000
7803F000
7E07F000
3FFFFFF8
1FFFFFF8
07FEFFF8
01F8FFF8
ENDCHAR
STARTCHAR 0153
ENCODING 339
SWIDTH 936 0
DWIDTH 26 0
BBX 25 15 1 0
BITMAP
01000000
0FE1FC00
3FFBFF00
7FFFFF80
7C7F8F00
F83F1E00
F01E3C00
F01E7800
F01EF000
F01FE000
783FC600
7FFFFF00
3FFFFF00
1FF3FE00
07C0F800
ENDCHAR
STARTCHAR 0154
ENCODING 340
SWIDTH 684 0
DWIDTH 19 0
BBX 16 26 2 0
BITMAP
0040
00E0
01F0
03E0
03C0
0100
0000
FFE0
FFF8
FFFC
FFFE
F03E
F01E
F00F
F00F
F00F
F01E
F03E
FFFE
FFFC
FFF8
FFF8
F078
F078
F07C
F03C
ENDCHAR
STARTCHAR 0155
ENCODING 341
SWIDTH 432 0
DWIDTH 12 0
BBX 10 21 1 0
BITMAP
0100
0300
0780
0F80
0E00
0C00
0000
8FC0
FFC0
FFC0
FFC0
F800
F000
F000
F000
F000
F000
F000
F000
F000
F000
ENDCHAR
STARTCHAR 0156
ENCODING 342
SWIDTH 684 0
DWIDTH 19 0
BBX 16 26 2 -7
BITMAP
FFE0
FFF8
FFFC
FFFE
F03E
F01E
F00F
F00F
F00F
F01E
F03E
FFFE
FFFC
FFF8
FFF8
F0F8
F078
F07C
F03C
0000
0000
0780
0780
0380
0180
0300
ENDCHAR
STARTCHAR 0157
ENCODING 343
SWIDTH 432 0
DWIDTH 12 0
BBX 10 21 1 -7
BITMAP
8FC0
FFC0
FFC0
FFC0
F800
F000
F000
F000
F000
F000
F000
F000
F000
F000
0000
0000
F000
F000
F000
6000
6000
ENDCHAR
STARTCHAR 0158
ENCODING 344
SWIDTH 684 0
DWIDTH 19 0
BBX 16 25 2 0
BITMAP
0C40
1FE0
0FC0
0380
0100
0000
FFE0
FFF8
FFFC
FFFE
F03E
F01E
F00F
F00F
F00F
F01E
F03E
FFFE
FFFC
FFF8
FFF8
F078
F078
F07C
F03C
ENDCHAR
STARTCHAR 0159
ENCODING 345
SWIDTH 432 0
DWIDTH 12 0
BBX 10 20 1 0
BITMAP
6200
7F00
3E00
1C00
0800
0000
8FC0
FFC0
FFC0
FFC0
F800
F000
F000
F000
F000
F000
F000
F000
F000
F000
ENDCHAR
STARTCHAR 015A
ENCODING 346
SWIDTH 648 0
DWIDTH 18 0
BBX 16 26 1 0
BITMAP
0020
0070
00F8
01F0
01C0
0080
0000
1FFE
3FFE
7FFE
FFFE
F000
F000
F000
FFE0
7FF8
3FFC
1FFE
001F
000F
000F
000F
7FFE
7FFE
7FFC
7FF0
ENDCHAR
STARTCHAR 015B
ENCODING 347
SWIDTH 540 0
DWIDTH 15 0
BBX 13 20 1 1
BITMAP
00C0
01E0
03E0
0380
0100
0000
3FF0
7FF0
FFF0
FFF0
F000
FFE0
7FF0
7FF8
1FF8
0078
FFF8
FFF0
FFF0
FFC0
ENDCHAR
STARTCHAR 015C
ENCODING 348
SWIDTH 648 0
DWIDTH 18 0
BBX 16 25 1 0
BITMAP
0180
03C0
07E0
0EF0
0420
0000
1FFE
3FFE
7FFE
FFFE
F000
F000
F000
FFE0
7FF8
3FFC
1FFE
001F
000F
000F
000F
7FFE
7FFE
7FFC
7FF0
ENDCHAR
STARTCHAR 015D
ENCODING 349
SWIDTH 540 0
DWIDTH 15 0
BBX 13 20 1 0
BITMAP
0600
0F00
1F80
1DC0
0880
0000
3FF0
7FF0
FFF0
FFF0
F000
FFE0
7FF0
7FF8
1FF8
0078
FFF8
FFF0
FFF0
FFC0
ENDCHAR
STARTCHAR 015E
ENCODING 350
SWIDTH 648 0
DWIDTH 18 0
BBX 16 25 1 -6
BITMAP
1FFE
3FFE
7FFE
FFFE
F000
F000
F000
FFE0
7FF8
3FFC
1FFE
001F
000F
000F
000F
7FFE
7FFE
7FFC
7FF0
0180
01C0
03E0
04E0
07E0
07C0
ENDCHAR
STARTCHAR 015F
ENCODING 351
SWIDTH 540 0
DWIDTH 15 0
BBX 13 20 1 -6
BITMAP
3FF0
7FF0
FFF0
FFF0
F000
FFE0
7FF0
7FF8
1FF8
0078
FFF8
FFF0
FFF0
FFC0
0600
0700
0780
0B80
0F80
0F00
ENDCHAR
STARTCHAR 0160
ENCODING 352
SWIDTH 648 0
DWIDTH 18 0
BBX 16 25 1 1
BITMAP
0660
0FF0
07E0
0380
0000
0000
1FFE
3FFE
7FFE
FFFE
F000
F000
F000
FFE0
7FF8
3FFC
1FFE
001F
000F
000F
000F
7FFE
7FFE
7FFC
7FF0
ENDCHAR
STARTCHAR 0161
ENCODING 353
SWIDTH 540 0
DWIDTH 15 0
BBX 13 20 1 0
BITMAP
0C80
1FC0
0F80
0700
0200
0000
3FF0
7FF0
FFF0
FFF0
F000
FFE0
7FF0
7FF8
1FF8
0078
FFF8
FFF0
FFF0
FFC0
ENDCHAR
STARTCHAR 0162
ENCODING 354
SWIDTH 648 0
DWIDTH 18 0
BBX 16 26 1 -7
BITMAP
FFFF
FFFF
FFFF
FFFF
03C0
03C0
03C0
03C0
03C0
03C0
03C0
03C0
03C0
03C0
03C0
03C0
03C0
03C0
03C0
0000
0000
03C0
03C0
03C0
0180
0180
ENDCHAR
STARTCHAR 0163
ENCODING 355
SWIDTH 468 0
DWIDTH 13 0
BBX 11 27 1 -7
BITMAP
3C00
3C00
3C00
3C00
3C00
3C00
FFE0
FFE0
FFE0
FFE0
3C00
3C00
3C00
3C00
3C00
3C00
1FE0
1FE0
0FE0
03E0
0000
0000
0F00
0F00
0700
0300
0600
ENDCHAR
STARTCHAR 0164
ENCODING 356
SWIDTH 648 0
DWIDTH 18 0
BBX 16 25 1 0
BITMAP
0660
0FF0
07E0
03C0
0180
0000
FFFF
FFFF
FFFF
FFFF
03C0
03C0
03C0
03C0
03C0
03C0
03C0
03C0
03C0
03C0
03C0
03C0
03C0
03C0
03C0
ENDCHAR
STARTCHAR 0165
ENCODING 357
SWIDTH 612 0
DWIDTH 17 0
BBX 16 20 1 0
BITMAP
3C00
3C06
3C0F
3C0F
3C07
3C06
FFE0
FFE0
FFE0
FFE0
3C00
3C00
3C00
3C00
3C00
3C00
1FE0
1FE0
0FE0
03E0
ENDCHAR
STARTCHAR 0166
ENCODING 358
SWIDTH 648 0
DWIDTH 18 0
BBX 16 19 1 0
BITMAP
FFFF
FFFF
FFFF
FFFF
03C0
03C0
03C0
03C0
03C0
0FF0
0FF0
0FF0
0FF0
03C0
03C0
03C0
03C0
03C0
03C0
ENDCHAR
STARTCHAR 0167
ENCODING 359
SWIDTH 468 0
DWIDTH 13 0
BBX 11 20 1 0
BITMAP
3C00
3C00
3C00
3C00
3C00
3C00
FFE0
FFE0
FFE0
FFE0
FF00
FF00
FF00
FF00
3C00
3E00
1FE0
1FE0
0FE0
03E0
ENDCHAR
STARTCHAR 0168
ENCODING 360
SWIDTH 684 0
DWIDTH 19 0
BBX 16 25 2 0
BITMAP
0F30
1FB0
1FF0
1DF0
1CE0
0000
F00F
F00F
F00F
F00F
F00F
F00F
F00F
F00F
F00F
F00F
F00F
F00F
F00F
F01E
783E
7FFC
3FFC
1FF8
07E0
ENDCHAR
STARTCHAR 0169
ENCODING 361
SWIDTH 540 0
DWIDTH 15 0
BBX 13 20 1 0
BITMAP
1CE0
3EE0
3FE0
3BE0
39C0
0000
F078
F078
F078
F078
F078
F078
F078
F078
F078
F8F8
7FF8
7FF8
3FF8
0F88
ENDCHAR
STARTCHAR 016A
ENCODING 362
SWIDTH 684 0
DWIDTH 19 0
BBX 16 23 2 0
BITMAP
0FE0
0FE0
0FE0
0000
F00F
F00F
F00F
F00F
F00F
F00F
F00F
F00F
F00F
F00F
F00F
F00F
F00F
F01E
783E
7FFC
3FFC
1FF8
07E0
ENDCHAR
STARTCHAR 016B
ENCODING 363
SWIDTH 540 0
DWIDTH 15 0
BBX 13 19 1 0
BITMAP
1FC0
1FC0
1FC0
0000
0000
F078
F078
F078
F078
F078
F078
F078
F078
F078
F8F8
7FF8
7FF8
3FF8
0F88
ENDCHAR
STARTCHAR 016C
ENCODING 364
SWIDTH 684 0
DWIDTH 19 0
BBX 16 24 2 0
BITMAP
0660
07E0
07E0
03C0
0000
F00F
F00F
F00F
F00F
F00F
F00F
F00F
F00F
F00F
F00F
F00F
F00F
F00F
F01E
783E
7FFC
3FFC
1FF8
07E0
ENDCHAR
STARTCHAR 016D
ENCODING 365
SWIDTH 540 0
DWIDTH 15 0
BBX 13 19 1 0
BITMAP
0D80
0F80
0F80
0000
0000
F078
F078
F078
F078
F078
F078
F078
F078
F078
F8F8
7FF8
7FF8
3FF8
0F88
ENDCHAR
STARTCHAR 016E
ENCODING 366
SWIDTH 684 0
DWIDTH 19 0
BBX 16 26 2 0
BITMAP
0180
07C0
0660
0660
07C0
0180
0000
F00F
F00F
F00F
F00F
F00F
F00F
F00F
F00F
F00F
F00F
F00F
F00F
F00F
F01E
783E
7FFC
3FFC
1FF8
07E0
ENDCHAR
STARTCHAR 016F
ENCODING 367
SWIDTH 540 0
DWIDTH 15 0
BBX 13 21 1 0
BITMAP
0200
0700
0D80
0D80
0F80
0700
0000
F078
F078
F078
F078
F078
F078
F078
F078
F078
F8F8
7FF8
7FF8
3FF8
0F88
ENDCHAR
STARTCHAR 0170
ENCODING 368
SWIDTH 684 0
DWIDTH 19 0
BBX 16 26 2 0
BITMAP
0100
0398
07FC
0F3C
0E78
0470
0000
F00F
F00F
F00F
F00F
F00F
F00F
F00F
F00F
F00F
F00F
F00F
F00F
F00F
F01E
783E
7FFC
3FFC
1FF8
07E0
ENDCHAR
STARTCHAR 0171
ENCODING 369
SWIDTH 540 0
DWIDTH 15 0
BBX 13 21 1 0
BITMAP
0620
0730
0F78
1EF0
1DE0
08C0
0000
F078
F078
F078
F078
F078
F078
F078
F078
F078
F8F8
7FF8
7FF8
3FF8
0F88
ENDCHAR
STARTCHAR 0172
ENCODING 370
SWIDTH 684 0
DWIDTH 19 0
BBX 16 24 2 -5
BITMAP
F00F
F00F
F00F
F00F
F00F
F00F
F00F
F00F
F00F
F00F
F00F
F00F
F00F
F01E
783E
7FFE
3FFC
1FF8
07E0
0300
0600
07C0
07E0
0380
ENDCHAR
STARTCHAR 0173
ENCODING 371
SWIDTH 540 0
DWIDTH 15 0
BBX 15 19 1 -5
BITMAP
F078
F078
F078
F078
F078
F078
F078
F078
F078
F8F8
7FF8
7FF8
3FD8
0F98
0030
0074
007E
003E
0010
ENDCHAR
STARTCHAR 0174
ENCODING 372
SWIDTH 828 0
DWIDTH 23 0
BBX 20 25 2 0
BITMAP
006000
00F000
01F800
01B800
011000
000000
F0F0F0
F0F0F0
F0F0F0
F0F0F0
F0F0F0
F0F0F0
F0F0F0
F0F0F0
F0F0F0
F0F0F0
F0F0F0
F0F0F0
F0F0F0
F0F0F0
F0F0F0
FFFFE0
7FFFE0
3FFFC0
1F1F00
ENDCHAR
STARTCHAR 0175
ENCODING 373
SWIDTH 756 0
DWIDTH 21 0
BBX 18 20 1 0
BITMAP
00C000
01E000
03F000
03F800
031000
000000
F1E3C0
F1E3C0
F1E3C0
F1E3C0
F1E3C0
F1E3C0
F1E3C0
F1E3C0
F1E3C0
F1E3C0
FFFFC0
7FFF80
3FFF80
1F1E00
ENDCHAR
STARTCHAR 0176
ENCODING 374
SWIDTH 648 0
DWIDTH 18 0
BBX 16 25 1 0
BITMAP
0100
0380
07C0
0FF0
0660
0000
F00F
F00F
F00F
F00F
F00F
F00F
F00F
F81E
7C3E
7FFE
3FFC
1FF8
07C0
03C0
03C0
03C0
03C0
03C0
03C0
ENDCHAR
STARTCHAR 0177
ENCODING 375
SWIDTH 540 0
DWIDTH 15 0
BBX 13 25 1 -5
BITMAP
0200
0700
0F80
1DC0
0880
0000
F078
F078
F078
F078
F078
F078
F078
F078
F078
F8F8
7FF8
7FF8
3FF8
0F78
00F8
0FF0
0FE0
0FC0
0F00
ENDCHAR
STARTCHAR 0178
ENCODING 376
SWIDTH 648 0
DWIDTH 18 0
BBX 16 24 1 0
BITMAP
0C60
1EF0
1EF0
0C60
0000
F00F
F00F
F00F
F00F
F00F
F00F
F00F
F81E
7C3E
7FFE
3FFC
1FF8
07C0
03C0
03C0
03C0
03C0
03C0
03C0
ENDCHAR
STARTCHAR 0179
ENCODING 377
SWIDTH 612 0
DWIDTH 17 0
BBX 15 26 1 0
BITMAP
0020
0060
00F0
01F0
01C0
0180
0000
FFFE
FFFC
FFFC
FFF8
00F8
01F0
01F0
03E0
03C0
07C0
0780
0F80
1F00
1F00
3E00
3FFE
7FFE
7FFE
FFFE
ENDCHAR
STARTCHAR 017A
ENCODING 378
SWIDTH 504 0
DWIDTH 14 0
BBX 12 20 1 1
BITMAP
01C0
03E0
07C0
0780
0200
0000
FFF0
FFE0
FFE0
FFC0
0380
0780
0F00
0F00
1E00
1C00
3FF0
7FF0
7FF0
FFF0
ENDCHAR
STARTCHAR 017B
ENCODING 379
SWIDTH 612 0
DWIDTH 17 0
BBX 16 24 1 0
BITMAP
0180
03C0
03C0
0180
0000
FFFE
FFFE
FFFC
FFFC
00F8
00F0
01F0
01E0
03E0
07C0
07C0
0F80
0F80
1F00
1F00
3FFF
7FFF
7FFF
FFFF
ENDCHAR
STARTCHAR 017C
ENCODING 380
SWIDTH 504 0
DWIDTH 14 0
BBX 13 19 0 0
BITMAP
0300
0780
0780
0300
0000
FFF8
FFF0
FFF0
FFE0
03C0
03C0
0780
0780
0F00
1E00
1FF8
3FF8
7FF8
7FF8
ENDCHAR
STARTCHAR 017D
ENCODING 381
SWIDTH 612 0
DWIDTH 17 0
BBX 15 25 1 0
BITMAP
0440
0EE0
07C0
0380
0100
0000
FFFE
FFFC
FFFC
FFF8
00F8
01F0
01F0
03E0
03C0
07C0
0780
0F80
1F00
1F00
3E00
3FFE
7FFE
7FFE
FFFE
ENDCHAR
STARTCHAR 017E
ENCODING 382
SWIDTH 504 0
DWIDTH 14 0
BBX 12 20 1 0
BITMAP
1980
3FC0
1F80
0700
0200
0000
FFF0
FFE0
FFE0
FFC0
0380
0780
0F00
0F00
1E00
1C00
3FF0
7FF0
7FF0
FFF0
ENDCHAR
STARTCHAR 01FC
ENCODING 508
SWIDTH 1008 0
DWIDTH 28 0
BBX 25 26 2 0
BITMAP
00008000
00018000
0003C000
0007C000
00070000
00020000
00000000
07FFFF80
1FFFFF80
3FFFFF80
7FFFFF80
780F0000
F00F0000
F00F0000
F00FFC00
F00FFC00
F00FFC00
F00FFC00
FFFF0000
FFFF0000
FFFF0000
FFFF0000
F00FFF80
F00FFF80
F00FFF80
F00FFF80
ENDCHAR
STARTCHAR 01FD
ENCODING 509
SWIDTH 972 0
DWIDTH 27 0
BBX 26 21 1 0
BITMAP
00008000
00018000
0003C000
0007C000
00070000
00020000
01000000
0FE6FE00
3FF7FF80
7FFFFFC0
7C7FC780
F03F8F00
F01F1E00
F01F3C00
F01F7800
F03FF000
F83FE300
7FFFFF80
3FFFFF80
1FF7FF00
0FC67C00
ENDCHAR
STARTCHAR 01FE
ENCODING 510
SWIDTH 792 0
DWIDTH 22 0
BBX 20 26 1 0
BITMAP
000800
001C00
003C00
007C00
007800
002000
000000
01F9E0
07FFC0
1FFF80
3FFFC0
3E0FE0
7C1FE0
783DF0
F038F0
F078F0
F0F0F0
F1E0F0
F3C0F0
FB81E0
7F83E0
7F07C0
3FFFC0
1FFF80
3FFE00
7BF800
ENDCHAR
STARTCHAR 01FF
ENCODING 511
SWIDTH 576 0
DWIDTH 16 0
BBX 15 21 1 0
BITMAP
0060
00F0
01F0
03E0
0180
0000
0100
0FFC
3FFC
7FF8
7CFC
F9FC
F1DE
F3DE
F79E
FF1E
7E3C
7FFC
3FF8
7FF0
FFC0
ENDCHAR
STARTCHAR 0237
ENCODING 567
SWIDTH 252 0
DWIDTH 7 0
BBX 10 19 -4 -5
BITMAP
03C0
03C0
03C0
03C0
03C0
03C0
03C0
03C0
03C0
03C0
03C0
03C0
03C0
03C0
0780
FF80
FF00
FE00
F800
ENDCHAR
STARTCHAR 02C6
ENCODING 710
SWIDTH 252 0
DWIDTH 7 0
BBX 7 5 0 14
BITMAP
10
3C
7E
EE
44
ENDCHAR
STARTCHAR 02C7
ENCODING 711
SWIDTH 252 0
DWIDTH 7 0
BBX 7 5 0 15
BITMAP
66
FE
7C
38
10
ENDCHAR
STARTCHAR 02D8
ENCODING 728
SWIDTH 216 0
DWIDTH 6 0
BBX 6 4 0 15
BITMAP
CC
EC
FC
78
ENDCHAR
STARTCHAR 02D9
ENCODING 729
SWIDTH 144 0
DWIDTH 4 0
BBX 4 4 0 15
BITMAP
60
F0
F0
60
ENDCHAR
STARTCHAR 02DA
ENCODING 730
SWIDTH 180 0
DWIDTH 5 0
BBX 5 5 0 14
BITMAP
70
F8
D8
F8
70
ENDCHAR
STARTCHAR 02DB
ENCODING 731
SWIDTH 216 0
DWIDTH 6 0
BBX 6 6 0 -5
BITMAP
30
60
E0
F8
FC
78
ENDCHAR
STARTCHAR 02DC
ENCODING 732
SWIDTH 324 0
DWIDTH 9 0
BBX 9 5 0 15
BITMAP
7380
FB80
FF80
EF80
E700
ENDCHAR
STARTCHAR 02DD
ENCODING 733
SWIDTH 396 0
DWIDTH 11 0
BBX 11 7 0 14
BITMAP
1000
3880
3DC0
7BE0
F780
6700
0200
ENDCHAR
STARTCHAR 0312
ENCODING 786
SWIDTH 216 0
DWIDTH 6 0
BBX 4 6 1 15
BITMAP
40
60
E0
F0
F0
60
ENDCHAR
STARTCHAR 0315
ENCODING 789
SWIDTH 144 0
DWIDTH 4 0
BBX 4 5 0 13
BITMAP
60
F0
F0
70
60
ENDCHAR
STARTCHAR 0326
ENCODING 806
SWIDTH 216 0
DWIDTH 6 0
BBX 4 5 1 -7
BITMAP
60
F0
F0
70
60
ENDCHAR
STARTCHAR 03C0
ENCODING 960
SWIDTH 576 0
DWIDTH 16 0
BBX 14 15 1 0
BITMAP
FFFC
FFFC
FFFC
FFFC
3CF0
3CF0
3CF0
3CF0
3CF0
3CF0
3CF0
3CF0
3CF0
3CF0
3CF0
ENDCHAR
STARTCHAR 1E80
ENCODING 7808
SWIDTH 828 0
DWIDTH 23 0
BBX 20 25 2 1
BITMAP
030000
078000
07C000
01C000
00C000
000000
F0F0F0
F0F0F0
F0F0F0
F0F0F0
F0F0F0
F0F0F0
F0F0F0
F0F0F0
F0F0F0
F0F0F0
F0F0F0
F0F0F0
F0F0F0
F0F0F0
F0F0F0
FFFFE0
7FFFE0
3FFFC0
1F1F00
ENDCHAR
STARTCHAR 1E81
ENCODING 7809
SWIDTH 756 0
DWIDTH 21 0
BBX 18 20 1 1
BITMAP
060000
0F0000
078000
038000
008000
000000
F1E3C0
F1E3C0
F1E3C0
F1E3C0
F1E3C0
F1E3C0
F1E3C0
F1E3C0
F1E3C0
F1E3C0
FFFFC0
7FFF80
3FFF80
1F1E00
ENDCHAR
STARTCHAR 1E82
ENCODING 7810
SWIDTH 828 0
DWIDTH 23 0
BBX 20 26 2 0
BITMAP
000800
001C00
003E00
007C00
007800
002000
000000
F0F0F0
F0F0F0
F0F0F0
F0F0F0
F0F0F0
F0F0F0
F0F0F0
F0F0F0
F0F0F0
F0F0F0
F0F0F0
F0F0F0
F0F0F0
F0F0F0
F0F0F0
FFFFE0
7FFFE0
3FFFC0
1F1F00
ENDCHAR
STARTCHAR 1E83
ENCODING 7811
SWIDTH 756 0
DWIDTH 21 0
BBX 18 21 1 0
BITMAP
000800
001800
003C00
007C00
007000
004000
000000
F1E3C0
F1E3C0
F1E3C0
F1E3C0
F1E3C0
F1E3C0
F1E3C0
F1E3C0
F1E3C0
F1E3C0
FFFFC0
7FFF80
3FFF80
1F1E00
ENDCHAR
STARTCHAR 1E84
ENCODING 7812
SWIDTH 828 0
DWIDTH 23 0
BBX 19 24 2 0
BITMAP
031800
07BC00
07BC00
031800
000000
F0F1E0
F0F1E0
F0F1E0
F0F1E0
F0F1E0
F0F1E0
F0F1E0
F0F1E0
F0F1E0
F0F1E0
F0F1E0
F0F1E0
F0F1E0
F0F1E0
F0F1E0
FFFFE0
7FFFC0
3FFF80
1F1F00
ENDCHAR
STARTCHAR 1E85
ENCODING 7813
SWIDTH 756 0
DWIDTH 21 0
BBX 19 19 1 0
BITMAP
031800
07BC00
07BC00
031800
000000
F1E1E0
F1E1E0
F1E1E0
F1E1E0
F1E1E0
F1E1E0
F1E1E0
F1E1E0
F1E1E0
F1E1E0
FFFFC0
7FFFC0
3FFF80
1F1E00
ENDCHAR
STARTCHAR 1EF2
ENCODING 7922
SWIDTH 648 0
DWIDTH 18 0
BBX 16 25 1 1
BITMAP
1C00
3E00
1F00
0F00
0200
0000
F00F
F00F
F00F
F00F
F00F
F00F
F00F
F81E
7C3E
7FFE
3FFC
1FF8
07C0
03C0
03C0
03C0
03C0
03C0
03C0
ENDCHAR
STARTCHAR 1EF3
ENCODING 7923
SWIDTH 540 0
DWIDTH 15 0
BBX 13 25 1 -4
BITMAP
3000
7800
7E00
1E00
0400
0000
F078
F078
F078
F078
F078
F078
F078
F078
F078
F8F8
7FF8
7FF8
3FF8
0F78
00F8
0FF0
0FE0
0FC0
0F00
ENDCHAR
STARTCHAR 2013
ENCODING 8211
SWIDTH 432 0
DWIDTH 12 0
BBX 8 4 2 8
BITMAP
FF
FF
FF
FF
ENDCHAR
STARTCHAR 2014
ENCODING 8212
SWIDTH 756 0
DWIDTH 21 0
BBX 17 4 2 8
BITMAP
FFFF80
FFFF80
FFFF80
FFFF80
ENDCHAR
STARTCHAR 2018
ENCODING 8216
SWIDTH 252 0
DWIDTH 7 0
BBX 5 7 1 12
BITMAP
60
60
E0
F8
F8
F8
70
ENDCHAR
STARTCHAR 2019
ENCODING 8217
SWIDTH 252 0
DWIDTH 7 0
BBX 5 7 1 12
BITMAP
70
F8
F8
F8
38
30
30
ENDCHAR
STARTCHAR 201A
ENCODING 8218
SWIDTH 252 0
DWIDTH 7 0
BBX 5 7 1 -3
BITMAP
70
F8
F8
F8
38
30
30
ENDCHAR
STARTCHAR 201C
ENCODING 8220
SWIDTH 432 0
DWIDTH 12 0
BBX 10 7 1 12
BITMAP
6300
6300
E700
FFC0
FFC0
FFC0
7380
ENDCHAR
STARTCHAR 201D
ENCODING 8221
SWIDTH 432 0
DWIDTH 12 0
BBX 10 7 1 12
BITMAP
7380
FFC0
FFC0
FFC0
39C0
3180
3180
ENDCHAR
STARTCHAR 201E
ENCODING 8222
SWIDTH 432 0
DWIDTH 12 0
BBX 10 7 1 -3
BITMAP
7380
FFC0
FFC0
FFC0
39C0
3180
3180
ENDCHAR
STARTCHAR 2020
ENCODING 8224
SWIDTH 432 0
DWIDTH 12 0
BBX 10 25 1 -3
BITMAP
1E00
1E00
1E00
1E00
1E00
FFC0
FFC0
FFC0
FFC0
1E00
1E00
1E00
1E00
1E00
1E00
1E00
1E00
1E00
1E00
1E00
1E00
1E00
1E00
1E00
1E00
ENDCHAR
STARTCHAR 2021
ENCODING 8225
SWIDTH 432 0
DWIDTH 12 0
BBX 10 25 1 -3
BITMAP
1E00
1E00
1E00
1E00
1E00
FFC0
FFC0
FFC0
FFC0
1E00
1E00
1E00
1E00
1E00
1E00
1E00
FFC0
FFC0
FFC0
FFC0
1E00
1E00
1E00
1E00
1E00
ENDCHAR
STARTCHAR 2022
ENCODING 8226
SWIDTH 360 0
DWIDTH 10 0
BBX 6 6 2 7
BITMAP
78
FC
FC
FC
FC
78
ENDCHAR
STARTCHAR 2026
ENCODING 8230
SWIDTH 756 0
DWIDTH 21 0
BBX 19 5 1 -1
BITMAP
70E1C0
F9F3E0
F9F3E0
F9F3E0
70E1C0
ENDCHAR
STARTCHAR 2030
ENCODING 8240
SWIDTH 1008 0
DWIDTH 28 0
BBX 26 19 1 0
BITMAP
3C0E0000
7E0C0000
FF1C0000
E7180000
E7380000
E7700000
FF700000
7EE00000
3CC00000
01DE0F00
01BF1F80
03FFBF80
0373B9C0
0773B9C0
0E73B9C0
0E73B9C0
1C3FBF80
1C3F1F80
381E0F00
ENDCHAR
STARTCHAR 2039
ENCODING 8249
SWIDTH 396 0
DWIDTH 11 0
BBX 9 14 1 0
BITMAP
0200
0700
0F80
1F00
3E00
7C00
F800
F800
7C00
3E00
1F00
0F80
0700
0200
ENDCHAR
STARTCHAR 203A
ENCODING 8250
SWIDTH 396 0
DWIDTH 11 0
BBX 9 14 1 0
BITMAP
2000
7000
F800
7C00
3E00
1F00
0F80
0F80
1F00
3E00
7C00
F800
7000
2000
ENDCHAR
STARTCHAR 2044
ENCODING 8260
SWIDTH 468 0
DWIDTH 13 0
BBX 13 19 0 0
BITMAP
0038
0038
0070
0060
00E0
01C0
01C0
0380
0380
0700
0700
0E00
1C00
1C00
3800
3800
7000
7000
E000
ENDCHAR
STARTCHAR 20AC
ENCODING 8364
SWIDTH 828 0
DWIDTH 23 0
BBX 20 19 1 0
BITMAP
001F80
00FFE0
01FFF0
03FFF0
07C020
3FF800
3FF800
3FF800
7FF800
7FF000
7FF000
7FF000
FFF000
07C020
03E060
03FFF0
01FFF0
007FE0
001F80
ENDCHAR
STARTCHAR 2122
ENCODING 8482
SWIDTH 612 0
DWIDTH 17 0
BBX 14 7 1 13
BITMAP
FDFC
3124
3124
3124
3124
3124
3124
ENDCHAR
STARTCHAR 2202
ENCODING 8706
SWIDTH 612 0
DWIDTH 17 0
BBX 15 21 1 0
BITMAP
07C0
03C0
01E0
01F0
00F0
00F8
07F8
1FF8
3FFC
7FFC
783C
F01E
F01E
F01E
F01E
F03C
783C
7FFC
3FF8
1FF0
07C0
ENDCHAR
STARTCHAR 220F
ENCODING 8719
SWIDTH 648 0
DWIDTH 18 0
BBX 16 20 1 0
BITMAP
FFFF
FFFF
FFFF
FFFF
3C78
3C78
3C78
3C78
3C78
3C78
3C78
3C78
3C78
3C78
3C78
3C78
3C78
3C78
3C78
3C78
ENDCHAR
STARTCHAR 2212
ENCODING 8722
SWIDTH 540 0
DWIDTH 15 0
BBX 11 4 2 8
BITMAP
FFE0
FFE0
FFE0
FFE0
ENDCHAR
STARTCHAR 221E
ENCODING 8734
SWIDTH 756 0
DWIDTH 21 0
BBX 19 13 1 3
BITMAP
0E0E00
3FBF80
7FFFC0
7FFFC0
F1F3E0
F1E1E0
F0E1E0
F0F1E0
F1F1E0
7FFFC0
7FFFC0
3FBF80
1F1F00
ENDCHAR
STARTCHAR 2248
ENCODING 8776
SWIDTH 468 0
DWIDTH 13 0
BBX 10 11 2 4
BITMAP
79C0
FDC0
FFC0
EF80
E780
0000
79C0
FDC0
FFC0
EF80
E780
ENDCHAR
STARTCHAR 2260
ENCODING 8800
SWIDTH 504 0
DWIDTH 14 0
BBX 11 17 2 1
BITMAP
01C0
03C0
0380
FFE0
FFE0
FFE0
FFE0
0E00
0E00
FFE0
FFE0
FFE0
FFE0
3800
7800
7000
7000
ENDCHAR
STARTCHAR FB01
ENCODING 64257
SWIDTH 684 0
DWIDTH 19 0
BBX 17 22 1 0
BITMAP
01E000
07E200
0FEF00
1FEF80
1E0F80
3C0F80
3C0200
3C0000
FFFF00
FFFF00
FFFF00
FFFF00
3C0F00
3C0F00
3C0F00
3C0F00
3C0F00
3C0F00
3C0F00
3C0F00
3C0F00
3C0F00
ENDCHAR
STARTCHAR FB02
ENCODING 64258
SWIDTH 648 0
DWIDTH 18 0
BBX 16 22 1 0
BITMAP
01FF
07FF
0FFF
1FFF
3E0F
3C0F
3C0F
3C0F
FFCF
FFCF
FFCF
FFCF
3C0F
3C0F
3C0F
3C0F
3C0F
3C0F
3C0F
3C0F
3C0F
3C0F
ENDCHAR
ENDFONT
